<?xml version="1.0" standalone="no"?><!DOCTYPE svg PUBLIC "-//W3C//DTD SVG 1.1//EN" "http://www.w3.org/Graphics/SVG/1.1/DTD/svg11.dtd"><svg t="1696844736642" class="icon" viewBox="0 0 1024 1024" version="1.1" xmlns="http://www.w3.org/2000/svg" p-id="10439" xmlns:xlink="http://www.w3.org/1999/xlink" width="200" height="200"><path d="M573 410.6H211.2c-11.8 0-21.4-9.6-21.4-21.4s9.6-21.4 21.4-21.4h360.4c9.8-1.6 77-14.8 83.6-82.8 3.4-36-5.2-67.4-24.2-88.6C614 177.8 589.6 168 560 168c-30.2 0-53 8.6-70 26.2-32.6 34-31.4 91.4-31.4 92 0.4 11.8-8.8 21.8-20.6 22.4-11.8 0.4-21.8-8.8-22.4-20.6-0.2-3-2.4-76 43.4-123.4 25-26 59-39.2 100.8-39.2 42 0 77.4 14.6 102.6 42.4 27.4 30.2 40 73.4 35.2 121.6-8.4 85-83.6 116.6-122.2 121.4-0.6-0.2-1.6-0.2-2.4-0.2z" fill="#67686A" p-id="10440"></path><path d="M799.2 533.4H114.2c-11.8 0-21.4-9.6-21.4-21.4s9.6-21.4 21.4-21.4h683.6c10.2-1.4 83.2-14.6 90-82.8 3-30.6-4.2-56.2-20.4-74.2-17.8-19.6-45.8-30-81-30-11.8 0-21.4-9.6-21.4-21.4s9.6-21.4 21.4-21.4c47.6 0 86.6 15.2 112.8 44 24.8 27.2 35.6 64.4 31.4 107.2-8.2 85.2-87.8 116.6-128.8 121.4h-2.6zM703.6 899c-42 0-76.2-13.2-101.4-39.4-45.8-47.6-43.6-120.2-43.4-123.4 0.4-11.8 10.6-21 22.4-20.6 11.8 0.4 21.2 10.4 20.6 22.4 0 0.6-1.4 57.8 31.6 92 17 17.6 40 26 70.2 26 29.6 0 54.2-9.8 71-28.4 19.2-21.2 27.8-52.6 24.2-88.4-6.6-68.4-73.8-81.2-83.8-82.8H224c-11.8 0-21.4-9.6-21.4-21.4 0-11.8 9.6-21.4 21.4-21.4h492.4c0.8 0 1.8 0 2.6 0.2 38.8 4.8 114.2 36.4 122.4 121.4 4.8 48.2-7.8 91.4-35.2 121.6-25 27.4-60.6 42.2-102.6 42.2z" fill="#67686A" p-id="10441"></path></svg>