<?xml version="1.0" standalone="no"?><!DOCTYPE svg PUBLIC "-//W3C//DTD SVG 1.1//EN" "http://www.w3.org/Graphics/SVG/1.1/DTD/svg11.dtd"><svg t="1696840226789" class="icon" viewBox="0 0 1024 1024" version="1.1" xmlns="http://www.w3.org/2000/svg" p-id="3554" xmlns:xlink="http://www.w3.org/1999/xlink" width="200" height="200"><path d="M489.1 24.5h61.6v978.1h-61.6z" fill="#1677B3" p-id="3555"></path><path d="M90.3 257.4l35.3-49.1 823.9 561.2-35.4 49.1z" fill="#1677B3" p-id="3556"></path><path d="M90.4 769.7l823.8-561.2 35.3 49.1-823.7 561.2z" fill="#1677B3" p-id="3557"></path><path d="M519.3 615c-57.9 0-105-45.8-105-102.2s47.1-102.2 105-102.2 105 45.8 105 102.2S577.2 615 519.3 615z m0-144.4c-24 0-43.4 18.9-43.4 42.2 0 23.4 19.4 42.2 43.4 42.2s43.4-18.9 43.4-42.2c0-23.3-19.4-42.2-43.4-42.2z" fill="#1677B3" p-id="3558"></path><path d="M462.9 513.4a57 55.4 0 1 0 114 0 57 55.4 0 1 0-114 0Z" fill="#FCFCFC" p-id="3559"></path><path d="M519.9 598.8c-48.4 0-87.8-38.3-87.8-85.4s39.4-85.4 87.8-85.4 87.8 38.3 87.8 85.4-39.4 85.4-87.8 85.4z m0-110.8c-14.5 0-26.2 11.4-26.2 25.5s11.7 25.5 26.2 25.5 26.2-11.4 26.2-25.5c0-14.2-11.7-25.5-26.2-25.5z" fill="#FFFFFF" p-id="3560"></path><path d="M378 58.1l37.5-47.5 122.6 91.7-37.6 47.5z" fill="#1677B3" p-id="3561"></path><path d="M496.1 101.9l122.5-91.7 37.6 47.4-122.6 91.7zM509.3 199.4L690.6 71l36.2 48.5-181.2 128.4z" fill="#1677B3" p-id="3562"></path><path d="M317.8 123.8l36.3-48.4 181.3 128.4-36.3 48.4zM148.3 886.3l12.4-149.9 61.4 4.8-12.4 149.9z" fill="#1677B3" p-id="3563"></path><path d="M37.7 720l20.5-56.5 145.8 50-20.5 56.6zM50.9 628.9l22-56 209.5 78-22 55.9z" fill="#1677B3" p-id="3564"></path><path d="M237.8 901l12-217.8 61.5 3.2-12 217.8zM374.8 963.6l122.6-91.7 37.5 47.5-122.6 91.7z" fill="#1677B3" p-id="3565"></path><path d="M493 919.5l37.5-47.5 122.6 91.7-37.6 47.5zM506.1 822.2l36.3-48.4 181.2 128.4-36.2 48.4z" fill="#1677B3" p-id="3566"></path><path d="M314.5 897.9l181.3-128.4 36.2 48.4-181.2 128.4zM799 147.6h61.6V298H799z" fill="#1677B3" p-id="3567"></path><path d="M819 323.6l15.9-57.9 149.4 38.7-15.9 57.9zM746.4 392.7l17.4-57.4 215.1 61.6-17.4 57.5z" fill="#1677B3" p-id="3568"></path><path d="M709 141.2l61.6-1.5 5.7 218.1-61.6 1.5zM38.1 295.7l150.1-36.2 14.8 58.2-150.1 36.1z" fill="#1677B3" p-id="3569"></path><path d="M162.483 291.471l2.552-150.385 61.594 1.045-2.553 150.385zM248.7 341.7l9.6-217.9 61.6 2.6-9.6 217.9z" fill="#1677B3" p-id="3570"></path><path d="M52.1 382.9l216.2-58 16.4 57.8-216.2 58zM816.7 685.3l148-43.5 17.8 57.4-148 43.4z" fill="#1677B3" p-id="3571"></path><path d="M797.2 712.2l61.6-2.1 5.2 150.3-61.5 2.1zM708.32 664.347l61.6-0.452 1.6 218.1-61.6 0.452z" fill="#1677B3" p-id="3572"></path><path d="M732 624.6l212.9-68.4 19.4 56.9-212.9 68.4z" fill="#1677B3" p-id="3573"></path><path d="M506.4 440.2h25.2l-4 113h-17.2l-4-113z m0 141.1c0-1.7 0.3-3.3 1-4.8s1.6-2.8 2.7-4c1.1-1.1 2.5-2 4-2.7s3.2-1 4.9-1c1.7 0 3.3 0.3 4.8 1s2.8 1.6 4 2.7c1.1 1.1 2 2.5 2.7 4 0.7 1.5 1 3.1 1 4.8 0 1.7-0.3 3.4-1 4.9-0.7 1.5-1.6 2.9-2.7 4.1-1.1 1.2-2.5 2.1-4 2.8-1.5 0.7-3.1 1-4.8 1-1.7 0-3.4-0.3-4.9-1-1.5-0.7-2.9-1.6-4-2.8-1.1-1.2-2-2.6-2.7-4.1-0.6-1.6-1-3.2-1-4.9z" fill="#E90006" p-id="3574"></path></svg>