<?xml version="1.0" standalone="no"?><!DOCTYPE svg PUBLIC "-//W3C//DTD SVG 1.1//EN" "http://www.w3.org/Graphics/SVG/1.1/DTD/svg11.dtd"><svg t="1696840181483" class="icon" viewBox="0 0 1024 1024" version="1.1" xmlns="http://www.w3.org/2000/svg" p-id="3263" xmlns:xlink="http://www.w3.org/1999/xlink" width="200" height="200"><path d="M798.6 359h-0.3C795.1 204 668.4 79.3 512.6 79.3S230.2 204 226.9 359h-0.4C145 359 78.3 425.7 78.3 507.3c0 81.6 66.7 148.3 148.3 148.3h572.1c81.6 0 148.3-66.7 148.3-148.3 0-81.5-66.8-148.3-148.4-148.3z" fill="#FFFFFF" p-id="3264"></path><path d="M798.6 683h-572c-46.7 0-90.8-18.3-124-51.5C69.3 598.1 51 554.1 51 507.4c0-46.7 18.3-90.8 51.5-124.1 27.1-27.1 61.5-44.3 98.6-49.7 7.3-72.8 39.5-140.2 92.3-192C352.3 83.8 430.1 52 512.6 52S673 83.8 731.8 141.5c52.8 51.8 85 119.2 92.3 192 37.1 5.4 71.4 22.6 98.5 49.7 33.2 33.2 51.5 77.3 51.5 124s-18.3 90.8-51.5 124.1-77.2 51.7-124 51.7z m-572-296.7c-66.7 0-121 54.3-121 121s54.3 121 121 121h572.1c66.7 0 121-54.3 121-121s-54.3-121-121-121h-27l-0.5-26.8c-3-139.5-118.9-252.9-258.5-252.9s-255.6 113.5-258.5 253l-0.5 26.8h-27.1z" fill="#1677B3" p-id="3265"></path><path d="M200.841217 829.602674a40.1 57 25.658 1 0 49.361822-102.758992 40.1 57 25.658 1 0-49.361822 102.758992Z" fill="#1677B3" p-id="3266"></path><path d="M553.167531 829.646508a40.1 57 25.658 1 0 49.361823-102.758992 40.1 57 25.658 1 0-49.361823 102.758992Z" fill="#1677B3" p-id="3267"></path><path d="M729.352789 829.623072a40.1 57 25.658 1 0 49.361823-102.758992 40.1 57 25.658 1 0-49.361823 102.758992Z" fill="#1677B3" p-id="3268"></path><path d="M376.983175 829.669377a40.1 57 25.658 1 0 49.361822-102.758992 40.1 57 25.658 1 0-49.361822 102.758992Z" fill="#1677B3" p-id="3269"></path><path d="M199.843019 962.60154a40.1 57 25.658 1 0 49.361823-102.758992 40.1 57 25.658 1 0-49.361823 102.758992Z" fill="#1677B3" p-id="3270"></path><path d="M552.169334 962.645374a40.1 57 25.658 1 0 49.361823-102.758992 40.1 57 25.658 1 0-49.361823 102.758992Z" fill="#1677B3" p-id="3271"></path><path d="M728.354592 962.621938a40.1 57 25.658 1 0 49.361823-102.758992 40.1 57 25.658 1 0-49.361823 102.758992Z" fill="#1677B3" p-id="3272"></path><path d="M375.984076 962.66881a40.1 57 25.658 1 0 49.361823-102.758992 40.1 57 25.658 1 0-49.361823 102.758992Z" fill="#1677B3" p-id="3273"></path></svg>