<?xml version="1.0" standalone="no"?><!DOCTYPE svg PUBLIC "-//W3C//DTD SVG 1.1//EN" "http://www.w3.org/Graphics/SVG/1.1/DTD/svg11.dtd"><svg t="1696840038954" class="icon" viewBox="0 0 1024 1024" version="1.1" xmlns="http://www.w3.org/2000/svg" p-id="2134" xmlns:xlink="http://www.w3.org/1999/xlink" width="200" height="200"><path d="M976 170.8H68c-16.5 0-30-13.5-30-30s13.5-30 30-30h908c16.5 0 30 13.5 30 30s-13.5 30-30 30zM634 308H136c-16.5 0-30-13.5-30-30v-0.5c0-16.5 13.5-30 30-30h498c16.5 0 30 13.5 30 30v0.5c0 16.5-13.5 30-30 30zM890 308H719c-16.5 0-30-13.5-30-30v-0.5c0-16.5 13.5-30 30-30h171c16.5 0 30 13.5 30 30v0.5c0 16.5-13.5 30-30 30zM559 446H208c-16.5 0-30-13.5-30-30v-0.5c0-16.5 13.5-30 30-30h351c16.5 0 30 13.5 30 30v0.5c0 16.5-13.5 30-30 30zM821 446H645c-16.5 0-30-13.5-30-30v-0.5c0-16.5 13.5-30 30-30h176c16.5 0 30 13.5 30 30v0.5c0 16.5-13.5 30-30 30zM742 566H282c-16.5 0-30-13.5-30-30v-0.5c0-16.5 13.5-30 30-30h460c16.5 0 30 13.5 30 30v0.5c0 16.5-13.5 30-30 30zM659 694H385c-16.5 0-30-13.5-30-30v-0.5c0-16.5 13.5-30 30-30h274c16.5 0 30 13.5 30 30v0.5c0 16.5-13.5 30-30 30zM549.6 943.3L627 809.4c12.2-21.2-3.1-47.7-27.5-47.7H444.8c-24.5 0-39.8 26.5-27.5 47.7l77.3 133.9c12.2 21.2 42.8 21.2 55 0z" fill="#1677B3" p-id="2135"></path></svg>