<?xml version="1.0" standalone="no"?><!DOCTYPE svg PUBLIC "-//W3C//DTD SVG 1.1//EN" "http://www.w3.org/Graphics/SVG/1.1/DTD/svg11.dtd"><svg t="1696844685572" class="icon" viewBox="0 0 1024 1024" version="1.1" xmlns="http://www.w3.org/2000/svg" p-id="9318" xmlns:xlink="http://www.w3.org/1999/xlink" width="200" height="200"><path d="M404.837209 0a369.163907 369.163907 0 0 1 335.181396 214.325581l0.166697 0.35721 6.620279 0.428651c132.834233 10.263814 237.901395 119.641302 241.378233 254.309209L988.27907 476.27907c0 141.931163-113.044837 257.952744-254.952186 261.858232L726.325581 738.232558h-23.813953v-23.813953h23.813953l6.667907-0.095256C861.42214 710.798884 964.465116 605.588837 964.465116 476.27907c0-131.524465-106.61507-238.139535-238.139535-238.139535l-1.881302 0.023814C672.863256 112.40186 549.173581 23.813953 404.837209 23.813953 214.13507 23.813953 59.534884 178.41414 59.534884 369.116279c0 170.412651 123.427721 311.962791 285.767442 340.182326V733.469767C169.74586 704.988279 35.72093 552.72186 35.72093 369.116279 35.72093 165.268837 200.989767 0 404.837209 0z" fill="#0072FF" p-id="9319"></path><path d="M414.934326 452.608a11.906977 11.906977 0 0 1 13.573953 9.954233c29.93414 193.464558-10.716279 315.582512-123.618232 362.734139a11.906977 11.906977 0 0 1-9.168373-21.980279c100.709209-42.055442 137.692279-153.218977 109.258419-337.110326a11.906977 11.906977 0 0 1 9.954233-13.597767zM692.033488 458.704372a11.906977 11.906977 0 1 1 20.956279 11.359256c-102.947721 189.725767-102.947721 332.68093-2.143255 431.627907a11.906977 11.906977 0 0 1-16.669768 17.003163c-109.615628-107.615256-109.615628-261.882047-2.143256-459.990326z" fill="#0072FF" p-id="9320"></path><path d="M559.88986 452.465116a11.906977 11.906977 0 0 1 11.645024 12.168931c-5.167628 233.972093-50.390326 396.978605-136.715907 488.900465-59.415814 63.321302-115.116651 76.752372-149.242047 44.770232-29.910326-28.029023-27.100279-79.872 10.716279-99.328 50.676093-18.027163 88.230698 36.649674 54.39107 69.774884a11.906977 11.906977 0 1 1-16.645953-17.026977c15.002791-14.693209-2.429023-40.031256-28.267163-30.958139-20.789581 10.763907-22.504186 42.722233-3.905489 60.154046 22.623256 21.194419 64.059535 11.192558 115.592931-43.674791 81.443721-86.778047 125.213767-244.474047 130.262325-473.135627a11.906977 11.906977 0 0 1 12.16893-11.645024z" fill="#0072FF" p-id="9321"></path></svg>