<?xml version="1.0" standalone="no"?><!DOCTYPE svg PUBLIC "-//W3C//DTD SVG 1.1//EN" "http://www.w3.org/Graphics/SVG/1.1/DTD/svg11.dtd"><svg t="1696843405197" class="icon" viewBox="0 0 1024 1024" version="1.1" xmlns="http://www.w3.org/2000/svg" p-id="10762" xmlns:xlink="http://www.w3.org/1999/xlink" width="200" height="200"><path d="M921.024 403.648c-1.408-9.856-4.032-19.328-6.784-28.736-5.056-17.344-12.352-33.6-21.568-48.704-35.648-58.688-99.264-98.624-172.672-99.648-8.896-15.104-19.456-28.864-30.848-41.728-11.456-12.928-24.192-24.384-37.76-34.88C630.144 133.568 606.848 119.744 581.632 110.144c-16-6.144-32.576-10.56-49.664-13.632C516.416 93.696 500.608 91.776 484.416 91.776c-130.496 0-241.216 90.56-267.648 216.96-67.328 22.4-116.096 85.888-116.096 160.704 0 93.44 76.032 169.472 169.408 169.472 33.728 0 65.792-9.728 93.504-28.16 37.376 18.432 78.848 28.16 120.832 28.16 43.584 0 86.656-10.56 125.12-30.4 32.32 19.904 69.056 30.4 107.584 30.4 107.648 0 196.16-83.008 205.248-188.352 0.512-5.888 0.896-11.84 0.896-17.856C923.328 422.784 922.368 413.184 921.024 403.648zM865.28 448.512c-7.936 74.752-71.36 133.184-148.16 133.184-33.28 0-64.768-10.752-91.008-31.04C613.632 541.056 595.712 543.36 586.048 555.84 585.856 556.032 585.728 556.288 585.6 556.544c-30.976 16.384-65.792 25.152-101.12 25.152-37.504 0-74.368-9.728-106.752-28.096C369.6 548.992 360.128 548.864 352.192 552.32 347.584 553.088 343.168 554.816 339.264 557.888 319.36 573.44 295.424 581.696 270.144 581.696c-61.888 0-112.256-50.368-112.256-112.256 0-61.888 50.368-112.256 112.256-112.256 31.232 0 61.312 13.184 82.496 36.096C363.328 404.864 381.44 405.568 393.024 394.88c11.584-10.688 12.352-28.8 1.6-40.384-30.144-32.64-72.192-52.16-116.416-54.272 27.84-89.152 110.208-151.296 206.272-151.296 6.08 0 12.16 0.576 18.176 1.088C518.72 151.36 534.4 154.56 549.568 159.36 578.88 168.64 605.568 184.32 628.48 204.672c10.496 9.344 20.48 19.392 29.056 30.848-5.12 1.536-10.112 3.456-15.104 5.376C636.16 243.328 630.336 246.848 624.32 249.92c-4.992 2.56-10.24 4.544-15.04 7.488-9.024 5.504-17.792 11.52-25.92 18.432-12.032 10.24-13.44 28.288-3.2 40.32 10.24 12.032 28.288 13.44 40.32 3.2 4.928-4.224 10.368-7.744 15.808-11.2 14.144-9.152 29.696-15.744 46.016-19.712 11.392-2.752 22.976-4.672 34.816-4.672 55.552 0 103.68 30.784 129.28 75.968 7.104 12.544 12.8 25.984 16 40.384 0.448 2.112 0.384 4.416 0.768 6.592 1.536 8.512 2.944 17.088 2.944 26.048C866.176 438.016 865.856 443.264 865.28 448.512z" fill="#05DD66" p-id="10763"></path><path d="M256 850.048c0 10.048-7.168 18.176-16 18.176l0 0c-8.832 0-16-8.128-16-18.176l0-141.824c0-10.048 7.168-18.176 16-18.176l0 0c8.832 0 16 8.128 16 18.176L256 850.048z" fill="#05DD66" p-id="10764"></path><path d="M352 870.016c0 10.048-7.168 18.176-16 18.176l0 0c-8.832 0-16-8.128-16-18.176l0-141.824c0-10.048 7.168-18.176 16-18.176l0 0c8.832 0 16 8.128 16 18.176L352 870.016z" fill="#05DD66" p-id="10765"></path><path d="M448 892.736c0 10.048-7.168 18.176-16 18.176l0 0c-8.832 0-16-8.128-16-18.176l0-141.824c0-10.048 7.168-18.176 16-18.176l0 0c8.832 0 16 8.128 16 18.176L448 892.736z" fill="#05DD66" p-id="10766"></path><path d="M544 914.048c0 10.048-7.168 18.176-16 18.176l0 0c-8.832 0-16-8.128-16-18.176l0-141.824c0-10.048 7.168-18.176 16-18.176l0 0c8.832 0 16 8.128 16 18.176L544 914.048z" fill="#05DD66" p-id="10767"></path><path d="M640 892.736c0 10.048-7.168 18.176-16 18.176l0 0c-8.832 0-16-8.128-16-18.176l0-141.824c0-10.048 7.168-18.176 16-18.176l0 0c8.832 0 16 8.128 16 18.176L640 892.736z" fill="#05DD66" p-id="10768"></path><path d="M736 870.016c0 10.048-7.168 18.176-16 18.176l0 0c-8.832 0-16-8.128-16-18.176l0-141.824c0-10.048 7.168-18.176 16-18.176l0 0c8.832 0 16 8.128 16 18.176L736 870.016z" fill="#05DD66" p-id="10769"></path><path d="M832 850.048c0 10.048-7.168 18.176-16 18.176l0 0c-8.832 0-16-8.128-16-18.176l0-141.824c0-10.048 7.168-18.176 16-18.176l0 0c8.832 0 16 8.128 16 18.176L832 850.048z" fill="#05DD66" p-id="10770"></path></svg>