<?xml version="1.0" standalone="no"?><!DOCTYPE svg PUBLIC "-//W3C//DTD SVG 1.1//EN" "http://www.w3.org/Graphics/SVG/1.1/DTD/svg11.dtd"><svg t="1696843342349" class="icon" viewBox="0 0 1024 1024" version="1.1" xmlns="http://www.w3.org/2000/svg" p-id="5118" xmlns:xlink="http://www.w3.org/1999/xlink" width="200" height="200"><path d="M814.08 113.408l49.088 0 0 790.976-49.088 0 0-790.976Z" fill="#05DD66" p-id="5119"></path><path d="M949.824 932.224c0 15.36-12.48 27.776-27.776 27.776L755.2 960c-15.36 0-27.776-12.48-27.776-27.776l0 0c0-15.36 12.48-27.776 27.776-27.776l166.848 0C937.408 904.384 949.824 916.864 949.824 932.224L949.824 932.224z" fill="#05DD66" p-id="5120"></path><path d="M838.592 113.408m-49.408 0a0.772 0.772 0 1 0 98.816 0 0.772 0.772 0 1 0-98.816 0Z" fill="#05DD66" p-id="5121"></path><path d="M666.432 575.104l-511.36-56.32c-0.064 0-0.128 0-0.192 0-43.584 0-80.704-37.184-80.704-82.88l0-162.496c0-45.76 37.248-83.008 83.008-83.008l530.88-58.816L688.064 163.84l-8.64 9.92C657.024 188.928 633.792 260.736 633.792 354.56c0 93.76 23.232 165.568 45.696 180.8l8.64 5.824L688.128 573.44 666.432 575.104zM627.904 177.664 159.36 229.504C133.056 229.568 113.408 249.28 113.408 273.472l0 162.496c0 24.128 19.584 43.776 43.712 43.776l470.912 51.712C605.12 487.104 594.624 417.088 594.624 354.56S605.12 222.016 627.904 177.664z" fill="#05DD66" p-id="5122"></path><path d="M684.672 576.768c-9.216 0-18.304-2.944-27.072-8.896l21.888-32.512C681.6 536.768 683.52 537.6 684.672 537.6c6.144 0 19.52-12.288 31.296-46.208 12.608-36.288 19.52-84.8 19.52-136.832 0-119.232-30.272-183.616-52.096-184.32 1.088 0.128-1.344 1.728-3.008 2.816l-22.912-31.744c7.168-4.864 15.808-10.752 27.072-10.24 66.496 2.048 90.112 121.664 90.112 223.488 0 56.256-7.68 109.44-21.696 149.696C732.224 564.16 704.384 576.768 684.672 576.768z" fill="#05DD66" p-id="5123"></path><path d="M425.28 539.968C313.92 329.28 421.952 173.568 426.624 167.104l31.936 22.72C454.464 195.584 360.256 333.056 459.968 521.536L425.28 539.968z" fill="#05DD66" p-id="5124"></path><path d="M257.472 519.296C158.528 332.16 254.656 193.664 258.752 187.84L290.752 210.56C287.168 215.616 204.864 335.872 292.096 500.864L257.472 519.296z" fill="#05DD66" p-id="5125"></path><path d="M756.055744 259.717568l105.753126 57.265907-16.457472 30.392064-105.753126-57.265907 16.457472-30.392064Z" fill="#05DD66" p-id="5126"></path><path d="M738.892429 398.444173l108.855731-51.1088 14.688 31.283712-108.855731 51.1088-14.688-31.283712Z" fill="#05DD66" p-id="5127"></path></svg>