<?xml version="1.0" standalone="no"?><!DOCTYPE svg PUBLIC "-//W3C//DTD SVG 1.1//EN" "http://www.w3.org/Graphics/SVG/1.1/DTD/svg11.dtd"><svg t="1696840126827" class="icon" viewBox="0 0 1024 1024" version="1.1" xmlns="http://www.w3.org/2000/svg" p-id="2835" xmlns:xlink="http://www.w3.org/1999/xlink" width="200" height="200"><path d="M816.9 350.3h-0.3C813.1 185 678.1 52.1 512 52.1S211 185 207.5 350.3h-0.4c-86.9 0-158 71.1-158 158.1s71.1 158.1 158.1 158.1H817c87 0 158.1-71.1 158.1-158.1-0.1-87-71.3-158.1-158.2-158.1z" fill="#FFFFFF" p-id="2836"></path><path d="M816.9 695.6H207.2c-49.8 0-96.8-19.5-132.2-54.9-35.5-35.5-55-82.5-55-132.3 0-49.8 19.5-96.8 54.9-132.3 28.9-28.9 65.5-47.3 105.1-53 7.8-77.5 42.1-149.5 98.4-204.7C341.1 56.9 424.1 23 512 23s171 33.9 233.7 95.4c56.3 55.2 90.6 127 98.4 204.7 39.5 5.7 76.1 24.1 105 53 35.4 35.4 54.9 82.4 54.9 132.2s-19.5 96.8-54.9 132.3c-35.5 35.4-82.3 55-132.2 55zM207.2 379.4c-71.1 0-129 57.8-129 129 0 71 57.8 129 129 129H817c71.1 0 129-57.8 129-129 0-71.1-57.8-129-129-129h-28.8l-0.6-28.5C784.4 202.2 660.8 81.2 512 81.2s-272.3 121-275.4 269.6l-0.6 28.5h-28.8z" fill="#1677B3" p-id="2837"></path><path d="M345.7 869.2l-46.4-16.7 1.4-141.9-106.5 131.1 46.5 16.7-1.4 141.9z" fill="#FED71A" p-id="2838"></path><path d="M621 855m-109 0a109 109 0 1 0 218 0 109 109 0 1 0-218 0Z" fill="#1677B3" p-id="2839"></path></svg>