<?xml version="1.0" standalone="no"?><!DOCTYPE svg PUBLIC "-//W3C//DTD SVG 1.1//EN" "http://www.w3.org/Graphics/SVG/1.1/DTD/svg11.dtd"><svg t="1696843355690" class="icon" viewBox="0 0 1024 1024" version="1.1" xmlns="http://www.w3.org/2000/svg" p-id="6369" xmlns:xlink="http://www.w3.org/1999/xlink" width="200" height="200"><path d="M960 111.872c0 15.104-11.904 27.328-26.56 27.328L90.56 139.2C75.904 139.264 64 126.976 64 111.872L64 91.328C64 76.224 75.904 64 90.56 64l842.88 0C948.096 64 960 76.224 960 91.328L960 111.872z" fill="#05DD66" p-id="6370"></path><path d="M960 248.64c0 15.104-11.904 27.328-26.56 27.328L223.296 275.968c-14.656 0-26.56-12.224-26.56-27.328L196.736 228.16c0-15.104 11.904-27.328 26.56-27.328l710.144 0C948.096 200.768 960 213.056 960 228.16L960 248.64z" fill="#05DD66" p-id="6371"></path><path d="M800.704 385.472c0 15.104-11.904 27.328-26.56 27.328L143.616 412.8c-14.656 0-26.56-12.224-26.56-27.328L117.056 364.928c0-15.104 11.904-27.328 26.56-27.328l630.528 0c14.656 0 26.56 12.224 26.56 27.328L800.704 385.472z" fill="#05DD66" p-id="6372"></path><path d="M960 522.24c0 15.104-11.904 27.328-26.56 27.328L302.912 549.568c-14.656 0-26.56-12.224-26.56-27.328L276.352 501.76c0-15.104 11.904-27.328 26.56-27.328l630.528 0C948.096 474.368 960 486.656 960 501.76L960 522.24z" fill="#05DD66" p-id="6373"></path><path d="M827.264 659.072c0 15.104-11.904 27.328-26.56 27.328L435.648 686.4c-14.656 0-26.56-12.224-26.56-27.328L409.088 638.528c0-15.104 11.904-27.328 26.56-27.328l365.056 0c14.656 0 26.56 12.224 26.56 27.328L827.264 659.072z" fill="#05DD66" p-id="6374"></path><path d="M694.528 795.84c0 15.104-11.904 27.328-26.56 27.328L462.208 823.168c-14.656 0-26.56-12.224-26.56-27.328l0-20.544c0-15.104 11.904-27.328 26.56-27.328l205.76 0c14.656 0 26.56 12.224 26.56 27.328L694.528 795.84z" fill="#05DD66" p-id="6375"></path><path d="M561.792 932.672C561.792 947.776 549.888 960 535.232 960L456 960c-14.656 0-26.56-12.224-26.56-27.328l0-20.544c0-15.104 11.904-27.328 26.56-27.328l79.232 0c14.656 0 26.56 12.224 26.56 27.328L561.792 932.672z" fill="#05DD66" p-id="6376"></path></svg>