<?xml version="1.0" standalone="no"?><!DOCTYPE svg PUBLIC "-//W3C//DTD SVG 1.1//EN" "http://www.w3.org/Graphics/SVG/1.1/DTD/svg11.dtd"><svg t="1676606474010" class="icon" viewBox="0 0 1024 1024" version="1.1" xmlns="http://www.w3.org/2000/svg" p-id="1983" xmlns:xlink="http://www.w3.org/1999/xlink" width="200" height="200"><path d="M768 533.76m-192 0a192 192 0 1 0 384 0 192 192 0 1 0-384 0Z" fill="#EDEDED" p-id="1984"></path><path d="M298.666667 490.666667m-192 0a192 192 0 1 0 384 0 192 192 0 1 0-384 0Z" fill="#EDEDED" p-id="1985"></path><path d="M280.618667 256l3.328 0.085333 3.285333 0.085334 3.285333 0.170666 3.242667 0.170667 3.242667 0.256 3.242666 0.256 3.242667 0.298667 3.242667 0.341333 3.2 0.384 3.2 0.426667 3.157333 0.469333 3.2 0.512 3.157333 0.554667 3.114667 0.554666 3.157333 0.64 3.114667 0.64 3.072 0.725334 3.114667 0.725333 3.072 0.768 3.029333 0.810667 3.072 0.853333 3.029333 0.853333 2.986667 0.938667 3.029333 0.938667 2.986667 0.981333 2.944 1.024 2.944 1.066667 2.944 1.109333 2.901333 1.109333 2.901334 1.194667 2.901333 1.194667 2.858667 1.237333 2.816 1.237333 2.816 1.322667 2.816 1.322667 2.816 1.365333 2.773333 1.408 2.730667 1.408 2.730666 1.493333 2.688 1.493334 2.730667 1.493333 2.645333 1.578667 2.645334 1.578666 2.645333 1.621334 2.602667 1.664 2.602666 1.664 2.56 1.706666 2.517334 1.749334 2.517333 1.792 2.517333 1.792 2.474667 1.834666 2.432 1.834667 2.432 1.877333 2.432 1.92 2.389333 1.962667 2.346667 1.962667 2.346667 2.005333 2.304 2.005333 2.261333 2.048 2.261333 2.090667 2.261334 2.133333 2.218666 2.133334 2.176 2.133333 2.133334 2.176 2.133333 2.218667 2.133333 2.261333 2.090667 2.261333 2.048 2.261334 2.005333 2.304 2.005334 2.346666 1.962666 2.346667 1.962667 2.389333 1.92 2.432 1.877333 2.432 1.834667 2.432 1.834667 2.474667 1.792 2.517333 1.792 2.517334 1.749333 2.517333 1.706667 2.56 1.664 2.602667 1.664 2.602666 1.621333 2.645334 1.578667 2.645333 1.578666 2.645333 1.493334 2.730667 1.493333 2.688 1.493333 2.730667 1.408 2.730666 1.408 2.773334 1.365334 2.816 1.322666 2.816 1.322667 2.816 1.237333 2.816 1.237334 2.858666 1.194666 2.901334 1.194667 2.901333 1.109333 2.901333 1.109334 2.944 1.066666 2.944 1.024 2.944 0.981334 2.986667 0.938666 3.029333 0.938667 2.986667 0.853333 3.029333 0.853334 3.072 0.810666 3.029334 0.768 3.072 0.725334 3.114666 0.725333 3.072 0.64 3.114667 0.64 3.157333 0.554667 3.114667 0.554666 3.157333 0.512 3.2 0.469334 3.157334 0.426666 3.2 0.384 3.2 0.341334 3.242666 0.298666 3.242667 0.256 3.242667 0.256 3.242666 0.170667 3.242667 0.170667 3.285333 0.085333 3.285334 0.085333 3.328v6.570666l-0.085333 3.328-0.085333 3.285334-0.170667 3.285333-0.170667 3.242667-0.256 3.242666-0.256 3.242667-0.298666 3.242667-0.341334 3.242666-0.384 3.2-0.426666 3.2-0.469334 3.157334-0.512 3.2-0.554666 3.157333-0.554667 3.114667-0.64 3.157333-0.64 3.114667-0.725333 3.072-0.725334 3.114666-0.768 3.072-0.810666 3.029334-0.853334 3.072-0.853333 3.029333-0.938667 2.986667-0.938666 3.029333-0.981334 2.986667-1.024 2.944-1.066666 2.944-1.109334 2.944-1.109333 2.901333-1.194667 2.901333-1.194666 2.901334-1.237334 2.858666-1.237333 2.816-1.322667 2.816-1.322666 2.816-1.365334 2.816-1.408 2.773334-1.408 2.730666-1.493333 2.730667-1.493333 2.688-1.493334 2.730667-1.578666 2.645333-1.578667 2.645333-1.621333 2.645334-1.664 2.602666-1.664 2.602667-1.706667 2.56-1.749333 2.517333-1.792 2.517334-1.792 2.517333-1.834667 2.474667-1.834667 2.432-1.877333 2.432-1.92 2.432-1.962667 2.389333-1.962666 2.346667-2.005334 2.346666-2.005333 2.304-2.048 2.261334-2.090667 2.261333-2.133333 2.261333-2.133333 2.218667-2.133334 2.176-2.176 2.133333-2.218666 2.133334-2.261334 2.133333-2.261333 2.090667-2.261333 2.048-2.304 2.005333-2.346667 2.005333-2.346667 1.962667-2.389333 1.962667-2.432 1.92-2.432 1.877333-2.432 1.834667-2.474667 1.834666-2.517333 1.792-2.517333 1.792-2.517334 1.749334-2.56 1.706666-2.602666 1.664-2.602667 1.664-2.645333 1.621334-2.645334 1.578666-2.645333 1.578667-2.730667 1.493333-2.688 1.493334-2.730666 1.493333-2.730667 1.408-2.773333 1.408-2.816 1.365333-2.816 1.322667-2.816 1.322667-2.816 1.237333-2.858667 1.237333-2.901333 1.194667-2.901334 1.194667-2.901333 1.109333-2.944 1.109333-2.944 1.066667-2.944 1.024-2.986667 0.981333-3.029333 0.938667-2.986667 0.938667-3.029333 0.853333-3.072 0.853333-3.029333 0.810667-3.072 0.768-3.114667 0.725333-3.072 0.725334-3.114667 0.64-3.157333 0.64-3.114667 0.554666-3.157333 0.554667-3.2 0.512-3.157333 0.469333-3.2 0.426667-3.2 0.384-3.242667 0.341333-3.242667 0.298667-3.242666 0.256-3.242667 0.256-3.242667 0.170667-3.285333 0.170666-3.285333 0.085334-3.328 0.085333h-6.570667l-3.328-0.085333-3.285333-0.085334-3.285334-0.170666-3.242666-0.170667-3.242667-0.256-3.242667-0.256-3.242666-0.298667-3.242667-0.341333-3.2-0.384-3.2-0.426667-3.157333-0.469333-3.2-0.512-3.157334-0.554667-3.114666-0.554666-3.157334-0.64-3.114666-0.64-3.072-0.725334-3.114667-0.725333-3.072-0.768-3.029333-0.810667-3.072-0.853333-3.029334-0.853333-2.986666-0.938667-3.029334-0.938667-2.986666-0.981333-2.944-1.024-2.944-1.066667-2.944-1.109333-2.901334-1.109333-2.901333-1.194667-2.901333-1.194667-2.858667-1.237333-2.816-1.237333-2.816-1.322667-2.816-1.322667-2.816-1.365333-2.773333-1.408-2.730667-1.408-2.730667-1.493333-2.688-1.493334-2.730666-1.493333-2.645334-1.578667-2.645333-1.578666-2.645333-1.621334-2.602667-1.664-2.602667-1.664-2.56-1.706666-2.517333-1.749334-2.517333-1.792-2.517334-1.792-2.474666-1.834666-2.432-1.834667-2.432-1.877333-2.432-1.92-2.389334-1.962667-2.346666-1.962667-2.346667-2.005333-2.304-2.005333-2.261333-2.048-2.261334-2.090667-2.261333-2.133333-2.218667-2.133334-2.176-2.133333-2.133333-2.176-2.133333-2.218667-2.133334-2.261333-2.090666-2.261333-2.048-2.261334-2.005334-2.304-2.005333-2.346666-1.962667-2.346667-1.962666-2.389333-1.92-2.432-1.877334-2.432-1.834666-2.432-1.834667-2.474667-1.792-2.517333-1.792-2.517334-1.749333-2.517333-1.706667-2.56-1.664-2.602667-1.664-2.602666-1.621333-2.645334-1.578667-2.645333-1.578667-2.645333-1.493333-2.730667-1.493333-2.688-1.493334-2.730667-1.408-2.730666-1.408-2.773334-1.365333-2.816-1.322667-2.816-1.322666-2.816-1.237334-2.816-1.237333-2.858666-1.194667-2.901334-1.194666-2.901333-1.109334-2.901333-1.109333-2.944-1.066667-2.944-1.024-2.944-0.981333-2.986667-0.938667-3.029333-0.938666-2.986667-0.853334-3.029333-0.853333-3.072-0.810667-3.029334-0.768-3.072-0.725333-3.114666-0.725333-3.072-0.64-3.114667-0.64-3.157333-0.554667-3.114667-0.554667-3.157333-0.512-3.2-0.469333-3.157334-0.426667-3.2-0.384-3.2-0.341333-3.242666-0.298667-3.242667-0.256-3.242667-0.256-3.242666-0.170666-3.242667-0.170667-3.285333-0.085333-3.285334-0.085334-3.328v-6.570666l0.085334-3.328 0.085333-3.285334 0.170667-3.285333 0.170666-3.242667 0.256-3.242666 0.256-3.242667 0.298667-3.242667 0.341333-3.242666 0.384-3.2 0.426667-3.2 0.469333-3.157334 0.512-3.2 0.554667-3.157333 0.554667-3.114667 0.64-3.157333 0.64-3.114667 0.725333-3.072 0.725333-3.114666 0.768-3.072 0.810667-3.029334 0.853333-3.072 0.853334-3.029333 0.938666-2.986667 0.938667-3.029333 0.981333-2.986667 1.024-2.944 1.066667-2.944 1.109333-2.944 1.109334-2.901333 1.194666-2.901333 1.194667-2.901334 1.237333-2.858666 1.237334-2.816 1.322666-2.816 1.322667-2.816 1.365333-2.816 1.408-2.773334 1.408-2.730666 1.493334-2.730667 1.493333-2.688 1.493333-2.730667 1.578667-2.645333 1.578667-2.645333 1.621333-2.645334 1.664-2.602666 1.664-2.602667 1.706667-2.56 1.749333-2.517333 1.792-2.517334 1.792-2.517333 1.834667-2.474667 1.834666-2.432 1.877334-2.432 1.92-2.432 1.962666-2.389333 1.962667-2.346667 2.005333-2.346666 2.005334-2.304 2.048-2.261334 2.090666-2.261333 2.133334-2.261333 2.133333-2.218667 2.133333-2.176 2.176-2.133333 2.218667-2.133334 2.261333-2.133333 2.261334-2.090667 2.261333-2.048 2.304-2.005333 2.346667-2.005333 2.346666-1.962667 2.389334-1.962667 2.432-1.92 2.432-1.877333 2.432-1.834667 2.474666-1.834666 2.517334-1.792 2.517333-1.792 2.517333-1.749334 2.56-1.706666 2.602667-1.664 2.602667-1.664 2.645333-1.621334 2.645333-1.578666 2.645334-1.578667 2.730666-1.493333 2.688-1.493334 2.730667-1.493333 2.730667-1.408 2.773333-1.408 2.816-1.365333 2.816-1.322667 2.816-1.322667 2.816-1.237333 2.858667-1.237333 2.901333-1.194667 2.901333-1.194667 2.901334-1.109333 2.944-1.109333 2.944-1.066667 2.944-1.024 2.986666-0.981333 3.029334-0.938667 2.986666-0.938667 3.029334-0.853333 3.072-0.853333 3.029333-0.810667 3.072-0.768 3.114667-0.725333 3.072-0.725334 3.114666-0.64 3.157334-0.64 3.114666-0.554666 3.157334-0.554667 3.2-0.512 3.157333-0.469333 3.2-0.426667 3.2-0.384 3.242667-0.341333 3.242666-0.298667 3.242667-0.256 3.242667-0.256 3.242666-0.170667 3.285334-0.170666 3.285333-0.085334L274.048 256h6.570667z m-6.058667 42.666667l-2.730667 0.085333-2.773333 0.085333-2.730667 0.128-2.730666 0.128-2.688 0.213334-2.730667 0.213333-2.688 0.256-2.688 0.298667-2.645333 0.298666-2.688 0.384-2.645334 0.384-2.645333 0.426667-2.602667 0.426667-2.645333 0.512-2.602667 0.512-2.602666 0.554666-2.56 0.554667-2.56 0.597333-2.56 0.64-2.56 0.682667-2.517334 0.725333-2.517333 0.725334-2.517333 0.768-2.517334 0.768-2.474666 0.853333-2.474667 0.853333-2.432 0.853334-2.432 0.938666-2.432 0.938667-2.432 0.938667-2.389333 1.024-2.389334 1.024-2.346666 1.024-2.346667 1.109333-2.346667 1.109333-2.304 1.109334-2.304 1.194666-2.304 1.194667-2.261333 1.194667-2.261333 1.237333-2.261334 1.28-2.218666 1.322667-2.218667 1.322666-2.176 1.322667-2.176 1.408-2.176 1.365333-2.133333 1.450667-2.090667 1.450667-2.133333 1.450666-2.090667 1.536-2.048 1.493334-2.048 1.578666-2.005333 1.578667-2.005334 1.578667-2.005333 1.621333-1.962667 1.664-1.962666 1.664-1.92 1.664-1.92 1.706667-1.877334 1.749333-1.877333 1.749333-1.834667 1.792-1.834666 1.792-1.792 1.834667-1.792 1.834667-1.749334 1.877333-1.749333 1.877333-1.706667 1.92-1.664 1.92-1.664 1.962667-1.664 1.962667-1.621333 2.005333-1.578667 2.005333-1.578666 2.005334-1.578667 2.048-1.493333 2.048-1.536 2.090666-1.450667 2.133334-1.450667 2.090666-1.450666 2.133334-1.365334 2.176-1.408 2.176-1.322666 2.176-1.322667 2.218666-1.322667 2.218667-1.28 2.261333-1.237333 2.261334-1.194667 2.261333-1.194666 2.304-1.194667 2.304-1.109333 2.304-1.109334 2.346667-1.109333 2.346666-1.024 2.346667-1.024 2.389333-1.024 2.389334-0.938667 2.432-0.938666 2.432-0.938667 2.432-0.853333 2.432-0.853334 2.474666-0.853333 2.474667-0.768 2.517333-0.768 2.517334-0.725333 2.517333-0.725334 2.517333-0.682666 2.56-0.64 2.56-0.597334 2.56-0.554666 2.56-0.554667 2.602667-0.512 2.602667-0.512 2.645333-0.426667 2.602667-0.426666 2.645333-0.384 2.645333-0.384 2.688-0.298667 2.645334-0.298667 2.688-0.256 2.688-0.213333 2.730666-0.213333 2.688-0.128 2.730667-0.128 2.730667-0.085334 2.773333-0.085333 2.730667v5.546666l0.085333 2.730667 0.085334 2.773333 0.128 2.730667 0.128 2.730667 0.213333 2.688 0.213333 2.730666 0.256 2.688 0.298667 2.688 0.298667 2.645334 0.384 2.688 0.384 2.645333 0.426666 2.645333 0.426667 2.602667 0.512 2.645333 0.512 2.602667 0.554667 2.602667 0.554666 2.56 0.597334 2.56 0.64 2.56 0.682666 2.56 0.725334 2.517333 0.725333 2.517333 0.768 2.517334 0.768 2.517333 0.853333 2.474667 0.853334 2.474666 0.853333 2.432 0.938667 2.432 0.938666 2.432 0.938667 2.432 1.024 2.389334 1.024 2.389333 1.024 2.346667 1.109333 2.346666 1.109334 2.346667 1.109333 2.304 1.194667 2.304 1.194666 2.304 1.194667 2.261333 1.237333 2.261334 1.28 2.261333 1.322667 2.218667 1.322667 2.218666 1.322666 2.176 1.408 2.176 1.365334 2.176 1.450666 2.133334 1.450667 2.090666 1.450667 2.133334 1.536 2.090666 1.493333 2.048 1.578667 2.048 1.578666 2.005334 1.578667 2.005333 1.621333 2.005333 1.664 1.962667 1.664 1.962667 1.664 1.92 1.706667 1.92 1.749333 1.877333 1.749334 1.877333 1.792 1.834667 1.792 1.834667 1.834666 1.792 1.834667 1.792 1.877333 1.749333 1.877334 1.749333 1.92 1.706667 1.92 1.664 1.962666 1.664 1.962667 1.664 2.005333 1.621333 2.005334 1.578667 2.005333 1.578667 2.048 1.578666 2.048 1.493334 2.090667 1.536 2.133333 1.450666 2.090667 1.450667 2.133333 1.450667 2.176 1.365333 2.176 1.408 2.176 1.322667 2.218667 1.322666 2.218666 1.322667 2.261334 1.28 2.261333 1.237333 2.261333 1.194667 2.304 1.194667 2.304 1.194666 2.304 1.109334 2.346667 1.109333 2.346667 1.109333 2.346666 1.024 2.389334 1.024 2.389333 1.024 2.432 0.938667 2.432 0.938667 2.432 0.938666 2.432 0.853334 2.474667 0.853333 2.474666 0.853333 2.517334 0.768 2.517333 0.768 2.517333 0.725334 2.517334 0.725333 2.56 0.682667 2.56 0.64 2.56 0.597333 2.56 0.554667 2.602666 0.554666 2.602667 0.512 2.645333 0.512 2.602667 0.426667 2.645333 0.426667 2.645334 0.384 2.688 0.384 2.645333 0.298666 2.688 0.298667 2.688 0.256 2.730667 0.213333 2.688 0.213334 2.730666 0.128 2.730667 0.128 2.773333 0.085333 2.730667 0.085333h5.546667l2.730666-0.085333 2.773334-0.085333 2.730666-0.128 2.730667-0.128 2.688-0.213334 2.730667-0.213333 2.688-0.256 2.688-0.298667 2.645333-0.298666 2.688-0.384 2.645333-0.384 2.645334-0.426667 2.602666-0.426667 2.645334-0.512 2.602666-0.512 2.602667-0.554666 2.56-0.554667 2.56-0.597333 2.56-0.64 2.56-0.682667 2.517333-0.725333 2.517334-0.725334 2.517333-0.768 2.517333-0.768 2.474667-0.853333 2.474667-0.853333 2.432-0.853334 2.432-0.938666 2.432-0.938667 2.432-0.938667 2.389333-1.024 2.389333-1.024 2.346667-1.024 2.346667-1.109333 2.346666-1.109333 2.304-1.109334 2.304-1.194666 2.304-1.194667 2.261334-1.194667 2.261333-1.237333 2.261333-1.28 2.218667-1.322667 2.218667-1.322666 2.176-1.322667 2.176-1.408 2.176-1.365333 2.133333-1.450667 2.090667-1.450667 2.133333-1.450666 2.090667-1.536 2.048-1.493334 2.048-1.578666 2.005333-1.578667 2.005333-1.578667 2.005334-1.621333 1.962666-1.664 1.962667-1.664 1.92-1.664 1.92-1.706667 1.877333-1.749333 1.877334-1.749333 1.834666-1.792 1.834667-1.792 1.792-1.834667 1.792-1.834667 1.749333-1.877333 1.749334-1.877333 1.706666-1.92 1.664-1.92 1.664-1.962667 1.664-1.962667 1.621334-2.005333 1.578666-2.005333 1.578667-2.005334 1.578667-2.048 1.493333-2.048 1.536-2.090666 1.450667-2.133334 1.450666-2.090666 1.450667-2.133334 1.365333-2.176 1.408-2.176 1.322667-2.176 1.322667-2.218666 1.322666-2.218667 1.28-2.261333 1.237334-2.261334 1.194666-2.261333 1.194667-2.304 1.194667-2.304 1.109333-2.304 1.109333-2.346667 1.109334-2.346666 1.024-2.346667 1.024-2.389333 1.024-2.389334 0.938666-2.432 0.938667-2.432 0.938667-2.432 0.853333-2.432 0.853333-2.474666 0.853334-2.474667 0.768-2.517333 0.768-2.517334 0.725333-2.517333 0.725333-2.517333 0.682667-2.56 0.64-2.56 0.597333-2.56 0.554667-2.56 0.554667-2.602667 0.512-2.602667 0.512-2.645333 0.426666-2.602667 0.426667-2.645333 0.384-2.645333 0.384-2.688 0.298667-2.645334 0.298666-2.688 0.256-2.688 0.213334-2.730666 0.213333-2.688 0.128-2.730667 0.128-2.730667 0.085333-2.773333 0.085334-2.730667v-5.546666l-0.085334-2.730667-0.085333-2.773333-0.128-2.730667-0.128-2.730667-0.213333-2.688-0.213334-2.730666-0.256-2.688-0.298666-2.688-0.298667-2.645334-0.384-2.688-0.384-2.645333-0.426667-2.645333-0.426666-2.602667-0.512-2.645333-0.512-2.602667-0.554667-2.602667-0.554667-2.56-0.597333-2.56-0.64-2.56-0.682667-2.56-0.725333-2.517333-0.725333-2.517333-0.768-2.517334-0.768-2.517333-0.853334-2.474667-0.853333-2.474666-0.853333-2.432-0.938667-2.432-0.938667-2.432-0.938666-2.432-1.024-2.389334-1.024-2.389333-1.024-2.346667-1.109334-2.346666-1.109333-2.346667-1.109333-2.304-1.194667-2.304-1.194667-2.304-1.194666-2.261333-1.237334-2.261334-1.28-2.261333-1.322666-2.218667-1.322667-2.218666-1.322667-2.176-1.408-2.176-1.365333-2.176-1.450667-2.133334-1.450666-2.090666-1.450667-2.133334-1.536-2.090666-1.493333-2.048-1.578667-2.048-1.578667-2.005334-1.578666-2.005333-1.621334-2.005333-1.664-1.962667-1.664-1.962667-1.664-1.92-1.706666-1.92-1.749334-1.877333-1.749333-1.877333-1.792-1.834667-1.792-1.834667-1.834667-1.792-1.834666-1.792-1.877334-1.749333-1.877333-1.749333-1.92-1.706667-1.92-1.664-1.962667-1.664-1.962666-1.664-2.005334-1.621333-2.005333-1.578667-2.005333-1.578667-2.048-1.578666-2.048-1.493334-2.090667-1.536-2.133333-1.450666-2.090667-1.450667-2.133333-1.450667-2.176-1.365333-2.176-1.408-2.176-1.322667-2.218667-1.322666-2.218667-1.322667-2.261333-1.28-2.261333-1.237333-2.261334-1.194667-2.304-1.194667-2.304-1.194666-2.304-1.109334-2.346666-1.109333-2.346667-1.109333-2.346667-1.024-2.389333-1.024-2.389333-1.024-2.432-0.938667-2.432-0.938667-2.432-0.938666-2.432-0.853334-2.474667-0.853333-2.474667-0.853333-2.517333-0.768-2.517333-0.768-2.517334-0.725334-2.517333-0.725333-2.56-0.682667-2.56-0.64-2.56-0.597333-2.56-0.554667-2.602667-0.554666-2.602666-0.512-2.645334-0.512-2.602666-0.426667-2.645334-0.426667-2.645333-0.384-2.688-0.384-2.645333-0.298666-2.688-0.298667-2.688-0.256-2.730667-0.213333-2.688-0.213334-2.730667-0.128-2.730666-0.128-2.773334-0.085333L280.106667 298.666667h-5.546667z" fill="#D4D4D4" p-id="1986"></path><path d="M749.952 256l3.328 0.085333 3.285333 0.085334 3.285334 0.170666 3.242666 0.170667 3.242667 0.256 3.242667 0.256 3.242666 0.298667 3.242667 0.341333 3.2 0.384 3.2 0.426667 3.157333 0.469333 3.2 0.512 3.157334 0.554667 3.114666 0.554666 3.157334 0.64 3.114666 0.64 3.072 0.725334 3.114667 0.725333 3.072 0.768 3.029333 0.810667 3.072 0.853333 3.029334 0.853333 2.986666 0.938667 3.029334 0.938667 2.986666 0.981333 2.944 1.024 2.944 1.066667 2.944 1.109333 2.901334 1.109333 2.901333 1.194667 2.901333 1.194667 2.858667 1.237333 2.816 1.237333 2.816 1.322667 2.816 1.322667 2.816 1.365333 2.773333 1.408 2.730667 1.408 2.730667 1.493333 2.688 1.493334 2.730666 1.493333 2.645334 1.578667 2.645333 1.578666 2.645333 1.621334 2.602667 1.664 2.602667 1.664 2.56 1.706666 2.517333 1.749334 2.517333 1.792 2.517334 1.792 2.474666 1.834666 2.432 1.834667 2.432 1.877333 2.432 1.92 2.389334 1.962667 2.346666 1.962667 2.346667 2.005333 2.304 2.005333 2.261333 2.048 2.261334 2.090667 2.261333 2.133333 2.218667 2.133334 2.176 2.133333 2.133333 2.176 2.133333 2.218667 2.133334 2.261333 2.090666 2.261333 2.048 2.261334 2.005334 2.304 2.005333 2.346666 1.962667 2.346667 1.962666 2.389333 1.92 2.432 1.877334 2.432 1.834666 2.432 1.834667 2.474667 1.792 2.517333 1.792 2.517334 1.749333 2.517333 1.706667 2.56 1.664 2.602667 1.664 2.602666 1.621333 2.645334 1.578667 2.645333 1.578667 2.645333 1.493333 2.730667 1.493333 2.688 1.493334 2.730667 1.408 2.730666 1.408 2.773334 1.365333 2.816 1.322667 2.816 1.322666 2.816 1.237334 2.816 1.237333 2.858666 1.194667 2.901334 1.194666 2.901333 1.109334 2.901333 1.109333 2.944 1.066667 2.944 1.024 2.944 0.981333 2.986667 0.938667 3.029333 0.938666 2.986667 0.853334 3.029333 0.853333 3.072 0.810667 3.029334 0.768 3.072 0.725333 3.114666 0.725333 3.072 0.64 3.114667 0.64 3.157333 0.554667 3.114667 0.554667 3.157333 0.512 3.2 0.469333 3.157334 0.426667 3.2 0.384 3.2 0.341333 3.242666 0.298667 3.242667 0.256 3.242667 0.256 3.242666 0.170666 3.242667 0.170667 3.285333 0.085333 3.285334 0.085334 3.328v6.570666l-0.085334 3.328-0.085333 3.285334-0.170667 3.285333-0.170666 3.242667-0.256 3.242666-0.256 3.242667-0.298667 3.242667-0.341333 3.242666-0.384 3.2-0.426667 3.2-0.469333 3.157334-0.512 3.2-0.554667 3.157333-0.554667 3.114667-0.64 3.157333-0.64 3.114667-0.725333 3.072-0.725333 3.114666-0.768 3.072-0.810667 3.029334-0.853333 3.072-0.853334 3.029333-0.938666 2.986667-0.938667 3.029333-0.981333 2.986667-1.024 2.944-1.066667 2.944-1.109333 2.944-1.109334 2.901333-1.194666 2.901333-1.194667 2.901334-1.237333 2.858666-1.237334 2.816-1.322666 2.816-1.322667 2.816-1.365333 2.816-1.408 2.773334-1.408 2.730666-1.493334 2.730667-1.493333 2.688-1.493333 2.730667-1.578667 2.645333-1.578667 2.645333-1.621333 2.645334-1.664 2.602666-1.664 2.602667-1.706667 2.56-1.749333 2.517333-1.792 2.517334-1.792 2.517333-1.834667 2.474667-1.834666 2.432-1.877334 2.432-1.92 2.432-1.962666 2.389333-1.962667 2.346667-2.005333 2.346666-2.005334 2.304-2.048 2.261334-2.090666 2.261333-2.133334 2.261333-2.133333 2.218667-2.133333 2.176-2.176 2.133333-2.218667 2.133334-2.261333 2.133333-2.261334 2.090667-2.261333 2.048-2.304 2.005333-2.346667 2.005333-2.346666 1.962667-2.389334 1.962667-2.432 1.92-2.432 1.877333-2.432 1.834667-2.474666 1.834666-2.517334 1.792-2.517333 1.792-2.517333 1.749334-2.56 1.706666-2.602667 1.664-2.602667 1.664-2.645333 1.621334-2.645333 1.578666-2.645334 1.578667-2.730666 1.493333-2.688 1.493334-2.730667 1.493333-2.730667 1.408-2.773333 1.408-2.816 1.365333-2.816 1.322667-2.816 1.322667-2.816 1.237333-2.858667 1.237333-2.901333 1.194667-2.901333 1.194667-2.901334 1.109333-2.944 1.109333-2.944 1.066667-2.944 1.024-2.986666 0.981333-3.029334 0.938667-2.986666 0.938667-3.029334 0.853333-3.072 0.853333-3.029333 0.810667-3.072 0.768-3.114667 0.725333-3.072 0.725334-3.114666 0.64-3.157334 0.64-3.114666 0.554666-3.157334 0.554667-3.2 0.512-3.157333 0.469333-3.2 0.426667-3.2 0.384-3.242667 0.341333-3.242666 0.298667-3.242667 0.256-3.242667 0.256-3.242666 0.170667-3.285334 0.170666-3.285333 0.085334-3.328 0.085333h-6.570667l-3.328-0.085333-3.285333-0.085334-3.285333-0.170666-3.242667-0.170667-3.242667-0.256-3.242666-0.256-3.242667-0.298667-3.242667-0.341333-3.2-0.384-3.2-0.426667-3.157333-0.469333-3.2-0.512-3.157333-0.554667-3.114667-0.554666-3.157333-0.64-3.114667-0.64-3.072-0.725334-3.114667-0.725333-3.072-0.768-3.029333-0.810667-3.072-0.853333-3.029333-0.853333-2.986667-0.938667-3.029333-0.938667-2.986667-0.981333-2.944-1.024-2.944-1.066667-2.944-1.109333-2.901333-1.109333-2.901334-1.194667-2.901333-1.194667-2.858667-1.237333-2.816-1.237333-2.816-1.322667-2.816-1.322667-2.816-1.365333-2.773333-1.408-2.730667-1.408-2.730666-1.493333-2.688-1.493334-2.730667-1.493333-2.645333-1.578667-2.645334-1.578666-2.645333-1.621334-2.602667-1.664-2.602666-1.664-2.56-1.706666-2.517334-1.749334-2.517333-1.792-2.517333-1.792-2.474667-1.834666-2.432-1.834667-2.432-1.877333-2.432-1.92-2.389333-1.962667-2.346667-1.962667-2.346667-2.005333-2.304-2.005333-2.261333-2.048-2.261333-2.090667-2.261334-2.133333-2.218666-2.133334-2.176-2.133333-2.133334-2.176-2.133333-2.218667-2.133333-2.261333-2.090667-2.261333-2.048-2.261334-2.005333-2.304-2.005334-2.346666-1.962666-2.346667-1.962667-2.389333-1.92-2.432-1.877333-2.432-1.834667-2.432-1.834667-2.474667-1.792-2.517333-1.792-2.517334-1.749333-2.517333-1.706667-2.56-1.664-2.602667-1.664-2.602666-1.621333-2.645334-1.578667-2.645333-1.578666-2.645333-1.493334-2.730667-1.493333-2.688-1.493333-2.730667-1.408-2.730666-1.408-2.773334-1.365334-2.816-1.322666-2.816-1.322667-2.816-1.237333-2.816-1.237334-2.858666-1.194666-2.901334-1.194667-2.901333-1.109333-2.901333-1.109334-2.944-1.066666-2.944-1.024-2.944-0.981334-2.986667-0.938666-3.029333-0.938667-2.986667-0.853333-3.029333-0.853334-3.072-0.810666-3.029334-0.768-3.072-0.725334-3.114666-0.725333-3.072-0.64-3.114667-0.64-3.157333-0.554667-3.114667-0.554666-3.157333-0.512-3.2-0.469334-3.157334-0.426666-3.2-0.384-3.2-0.341334-3.242666-0.298666-3.242667-0.256-3.242667-0.256-3.242666-0.170667-3.242667-0.170667-3.285333-0.085333-3.285334-0.085333-3.328v-6.570666l0.085333-3.328 0.085333-3.285334 0.170667-3.285333 0.170667-3.242667 0.256-3.242666 0.256-3.242667 0.298666-3.242667 0.341334-3.242666 0.384-3.2 0.426666-3.2 0.469334-3.157334 0.512-3.2 0.554666-3.157333 0.554667-3.114667 0.64-3.157333 0.64-3.114667 0.725333-3.072 0.725334-3.114666 0.768-3.072 0.810666-3.029334 0.853334-3.072 0.853333-3.029333 0.938667-2.986667 0.938666-3.029333 0.981334-2.986667 1.024-2.944 1.066666-2.944 1.109334-2.944 1.109333-2.901333 1.194667-2.901333 1.194666-2.901334 1.237334-2.858666 1.237333-2.816 1.322667-2.816 1.322666-2.816 1.365334-2.816 1.408-2.773334 1.408-2.730666 1.493333-2.730667 1.493333-2.688 1.493334-2.730667 1.578666-2.645333 1.578667-2.645333 1.621333-2.645334 1.664-2.602666 1.664-2.602667 1.706667-2.56 1.749333-2.517333 1.792-2.517334 1.792-2.517333 1.834667-2.474667 1.834667-2.432 1.877333-2.432 1.92-2.432 1.962667-2.389333 1.962666-2.346667 2.005334-2.346666 2.005333-2.304 2.048-2.261334 2.090667-2.261333 2.133333-2.261333 2.133333-2.218667 2.133334-2.176 2.176-2.133333 2.218666-2.133334 2.261334-2.133333 2.261333-2.090667 2.261333-2.048 2.304-2.005333 2.346667-2.005333 2.346667-1.962667 2.389333-1.962667 2.432-1.92 2.432-1.877333 2.432-1.834667 2.474667-1.834666 2.517333-1.792 2.517333-1.792 2.517334-1.749334 2.56-1.706666 2.602666-1.664 2.602667-1.664 2.645333-1.621334 2.645334-1.578666 2.645333-1.578667 2.730667-1.493333 2.688-1.493334 2.730666-1.493333 2.730667-1.408 2.773333-1.408 2.816-1.365333 2.816-1.322667 2.816-1.322667 2.816-1.237333 2.858667-1.237333 2.901333-1.194667 2.901334-1.194667 2.901333-1.109333 2.944-1.109333 2.944-1.066667 2.944-1.024 2.986667-0.981333 3.029333-0.938667 2.986667-0.938667 3.029333-0.853333 3.072-0.853333 3.029333-0.810667 3.072-0.768 3.114667-0.725333 3.072-0.725334 3.114667-0.64 3.157333-0.64 3.114667-0.554666 3.157333-0.554667 3.2-0.512 3.157333-0.469333 3.2-0.426667 3.2-0.384 3.242667-0.341333 3.242667-0.298667 3.242666-0.256 3.242667-0.256 3.242667-0.170667 3.285333-0.170666 3.285333-0.085334 3.328-0.085333h6.570667z m-6.058667 42.666667l-2.730666 0.085333-2.773334 0.085333-2.730666 0.128-2.730667 0.128-2.688 0.213334-2.730667 0.213333-2.688 0.256-2.688 0.298667-2.645333 0.298666-2.688 0.384-2.645333 0.384-2.645334 0.426667-2.602666 0.426667-2.645334 0.512-2.602666 0.512-2.602667 0.554666-2.56 0.554667-2.56 0.597333-2.56 0.64-2.56 0.682667-2.517333 0.725333-2.517334 0.725334-2.517333 0.768-2.517333 0.768-2.474667 0.853333-2.474667 0.853333-2.432 0.853334-2.432 0.938666-2.432 0.938667-2.432 0.938667-2.389333 1.024-2.389333 1.024-2.346667 1.024-2.346667 1.109333-2.346666 1.109333-2.304 1.109334-2.304 1.194666-2.304 1.194667-2.261334 1.194667-2.261333 1.237333-2.261333 1.28-2.218667 1.322667-2.218667 1.322666-2.176 1.322667-2.176 1.408-2.176 1.365333-2.133333 1.450667-2.090667 1.450667-2.133333 1.450666-2.090667 1.536-2.048 1.493334-2.048 1.578666-2.005333 1.578667-2.005333 1.578667-2.005334 1.621333-1.962666 1.664-1.962667 1.664-1.92 1.664-1.92 1.706667-1.877333 1.749333-1.877334 1.749333-1.834666 1.792-1.834667 1.792-1.792 1.834667-1.792 1.834667-1.749333 1.877333-1.749334 1.877333-1.706666 1.92-1.664 1.92-1.664 1.962667-1.664 1.962667-1.621334 2.005333-1.578666 2.005333-1.578667 2.005334-1.578667 2.048-1.493333 2.048-1.536 2.090666-1.450667 2.133334-1.450666 2.090666-1.450667 2.133334-1.365333 2.176-1.408 2.176-1.322667 2.176-1.322667 2.218666-1.322666 2.218667-1.28 2.261333-1.237334 2.261334-1.194666 2.261333-1.194667 2.304-1.194667 2.304-1.109333 2.304-1.109333 2.346667-1.109334 2.346666-1.024 2.346667-1.024 2.389333-1.024 2.389334-0.938666 2.432-0.938667 2.432-0.938667 2.432-0.853333 2.432-0.853333 2.474666-0.853334 2.474667-0.768 2.517333-0.768 2.517334-0.725333 2.517333-0.725333 2.517333-0.682667 2.56-0.64 2.56-0.597333 2.56-0.554667 2.56-0.554667 2.602667-0.512 2.602667-0.512 2.645333-0.426666 2.602667-0.426667 2.645333-0.384 2.645333-0.384 2.688-0.298667 2.645334-0.298666 2.688-0.256 2.688-0.213334 2.730666-0.213333 2.688-0.128 2.730667-0.128 2.730667-0.085333 2.773333-0.085334 2.730667v5.546666l0.085334 2.730667 0.085333 2.773333 0.128 2.730667 0.128 2.730667 0.213333 2.688 0.213334 2.730666 0.256 2.688 0.298666 2.688 0.298667 2.645334 0.384 2.688 0.384 2.645333 0.426667 2.645333 0.426666 2.602667 0.512 2.645333 0.512 2.602667 0.554667 2.602667 0.554667 2.56 0.597333 2.56 0.64 2.56 0.682667 2.56 0.725333 2.517333 0.725333 2.517333 0.768 2.517334 0.768 2.517333 0.853334 2.474667 0.853333 2.474666 0.853333 2.432 0.938667 2.432 0.938667 2.432 0.938666 2.432 1.024 2.389334 1.024 2.389333 1.024 2.346667 1.109334 2.346666 1.109333 2.346667 1.109333 2.304 1.194667 2.304 1.194667 2.304 1.194666 2.261333 1.237334 2.261334 1.28 2.261333 1.322666 2.218667 1.322667 2.218666 1.322667 2.176 1.408 2.176 1.365333 2.176 1.450667 2.133334 1.450666 2.090666 1.450667 2.133334 1.536 2.090666 1.493333 2.048 1.578667 2.048 1.578667 2.005334 1.578666 2.005333 1.621334 2.005333 1.664 1.962667 1.664 1.962667 1.664 1.92 1.706666 1.92 1.749334 1.877333 1.749333 1.877333 1.792 1.834667 1.792 1.834667 1.834667 1.792 1.834666 1.792 1.877334 1.749333 1.877333 1.749333 1.92 1.706667 1.92 1.664 1.962667 1.664 1.962666 1.664 2.005334 1.621333 2.005333 1.578667 2.005333 1.578667 2.048 1.578666 2.048 1.493334 2.090667 1.536 2.133333 1.450666 2.090667 1.450667 2.133333 1.450667 2.176 1.365333 2.176 1.408 2.176 1.322667 2.218667 1.322666 2.218667 1.322667 2.261333 1.28 2.261333 1.237333 2.261334 1.194667 2.304 1.194667 2.304 1.194666 2.304 1.109334 2.346666 1.109333 2.346667 1.109333 2.346667 1.024 2.389333 1.024 2.389333 1.024 2.432 0.938667 2.432 0.938667 2.432 0.938666 2.432 0.853334 2.474667 0.853333 2.474667 0.853333 2.517333 0.768 2.517333 0.768 2.517334 0.725334 2.517333 0.725333 2.56 0.682667 2.56 0.64 2.56 0.597333 2.56 0.554667 2.602667 0.554666 2.602666 0.512 2.645334 0.512 2.602666 0.426667 2.645334 0.426667 2.645333 0.384 2.688 0.384 2.645333 0.298666 2.688 0.298667 2.688 0.256 2.730667 0.213333 2.688 0.213334 2.730667 0.128 2.730666 0.128 2.773334 0.085333 2.730666 0.085333h5.546667l2.730667-0.085333 2.773333-0.085333 2.730667-0.128 2.730666-0.128 2.688-0.213334 2.730667-0.213333 2.688-0.256 2.688-0.298667 2.645333-0.298666 2.688-0.384 2.645334-0.384 2.645333-0.426667 2.602667-0.426667 2.645333-0.512 2.602667-0.512 2.602666-0.554666 2.56-0.554667 2.56-0.597333 2.56-0.64 2.56-0.682667 2.517334-0.725333 2.517333-0.725334 2.517333-0.768 2.517334-0.768 2.474666-0.853333 2.474667-0.853333 2.432-0.853334 2.432-0.938666 2.432-0.938667 2.432-0.938667 2.389333-1.024 2.389334-1.024 2.346666-1.024 2.346667-1.109333 2.346667-1.109333 2.304-1.109334 2.304-1.194666 2.304-1.194667 2.261333-1.194667 2.261333-1.237333 2.261334-1.28 2.218666-1.322667 2.218667-1.322666 2.176-1.322667 2.176-1.408 2.176-1.365333 2.133333-1.450667 2.090667-1.450667 2.133333-1.450666 2.090667-1.536 2.048-1.493334 2.048-1.578666 2.005333-1.578667 2.005334-1.578667 2.005333-1.621333 1.962667-1.664 1.962666-1.664 1.92-1.664 1.92-1.706667 1.877334-1.749333 1.877333-1.749333 1.834667-1.792 1.834666-1.792 1.792-1.834667 1.792-1.834667 1.749334-1.877333 1.749333-1.877333 1.706667-1.92 1.664-1.92 1.664-1.962667 1.664-1.962667 1.621333-2.005333 1.578667-2.005333 1.578666-2.005334 1.578667-2.048 1.493333-2.048 1.536-2.090666 1.450667-2.133334 1.450667-2.090666 1.450666-2.133334 1.365334-2.176 1.408-2.176 1.322666-2.176 1.322667-2.218666 1.322667-2.218667 1.28-2.261333 1.237333-2.261334 1.194667-2.261333 1.194666-2.304 1.194667-2.304 1.109333-2.304 1.109334-2.346667 1.109333-2.346666 1.024-2.346667 1.024-2.389333 1.024-2.389334 0.938667-2.432 0.938666-2.432 0.938667-2.432 0.853333-2.432 0.853334-2.474666 0.853333-2.474667 0.768-2.517333 0.768-2.517334 0.725333-2.517333 0.725334-2.517333 0.682666-2.56 0.64-2.56 0.597334-2.56 0.554666-2.56 0.554667-2.602667 0.512-2.602667 0.512-2.602666 0.426667-2.645334 0.426666-2.645333 0.384-2.645333 0.384-2.688 0.298667-2.645334 0.298667-2.688 0.256-2.688 0.213333-2.730666 0.213333-2.688 0.128-2.730667 0.128-2.730667 0.085334-2.773333 0.085333-2.730667v-5.546666l-0.085333-2.730667-0.085334-2.773333-0.128-2.730667-0.128-2.730667-0.213333-2.688-0.213333-2.730666-0.256-2.688-0.298667-2.688-0.298667-2.645334-0.384-2.688-0.384-2.645333-0.426666-2.645333-0.426667-2.645334-0.512-2.602666-0.512-2.602667-0.554667-2.602667-0.554666-2.56-0.597334-2.56-0.64-2.56-0.682666-2.56-0.725334-2.517333-0.725333-2.517333-0.768-2.517334-0.768-2.517333-0.853333-2.474667-0.853334-2.474666-0.853333-2.432-0.938667-2.432-0.938666-2.432-0.938667-2.432-1.024-2.389334-1.024-2.389333-1.024-2.346667-1.109333-2.346666-1.109334-2.346667-1.109333-2.304-1.194667-2.304-1.194666-2.304-1.194667-2.261333-1.237333-2.261334-1.28-2.261333-1.322667-2.218667-1.322667-2.218666-1.322666-2.176-1.408-2.176-1.365334-2.176-1.450666-2.133334-1.450667-2.090666-1.450667-2.133334-1.536-2.090666-1.493333-2.048-1.578667-2.048-1.578666-2.005334-1.578667-2.005333-1.621333-2.005333-1.664-1.962667-1.664-1.962667-1.664-1.92-1.706667-1.92-1.749333-1.877333-1.749334-1.877333-1.792-1.834667-1.792-1.834667-1.834666-1.792-1.834667-1.792-1.877333-1.749333-1.877334-1.749333-1.92-1.706667-1.92-1.664-1.962666-1.664-1.962667-1.664-2.005333-1.621333-2.005334-1.578667-2.005333-1.578667-2.048-1.578666-2.048-1.493334-2.090667-1.536-2.133333-1.450666-2.090667-1.450667-2.133333-1.450667-2.176-1.365333-2.176-1.408-2.176-1.322667-2.218667-1.322666-2.218666-1.322667-2.261334-1.28-2.261333-1.237333-2.261333-1.194667-2.304-1.194667-2.304-1.194666-2.304-1.109334-2.346667-1.109333-2.346667-1.109333-2.346666-1.024-2.389334-1.024-2.389333-1.024-2.432-0.938667-2.432-0.938667-2.432-0.938666-2.432-0.853334-2.474667-0.853333-2.474666-0.853333-2.517334-0.768-2.517333-0.768-2.517333-0.725334-2.517334-0.725333-2.56-0.682667-2.56-0.64-2.56-0.597333-2.56-0.554667-2.602666-0.554666-2.602667-0.512-2.645333-0.512-2.602667-0.426667-2.645333-0.426667-2.645334-0.384-2.688-0.384-2.645333-0.298666-2.688-0.298667-2.688-0.256-2.730667-0.213333-2.688-0.213334-2.730666-0.128-2.730667-0.128-2.773333-0.085333L749.44 298.666667h-5.546667zM320.469333 128a42.666667 42.666667 0 0 0-42.666666-42.666667h-1.92a42.666667 42.666667 0 0 0 0 85.333334h1.92a42.666667 42.666667 0 0 0 42.666666-42.666667zM554.197333 128a42.666667 42.666667 0 0 0-42.666666-42.666667h-1.962667a42.666667 42.666667 0 0 0 0 85.333334h1.962667a42.666667 42.666667 0 0 0 42.666666-42.666667zM320 896a42.24 42.24 0 0 0-42.197333-42.197333h-1.92a42.24 42.24 0 0 0 0 84.394666h1.92A42.24 42.24 0 0 0 320 896zM790.784 128a42.666667 42.666667 0 0 0-42.666667-42.666667h-1.92a42.666667 42.666667 0 0 0 0 85.333334h1.92a42.666667 42.666667 0 0 0 42.666667-42.666667zM790.314667 896a42.24 42.24 0 0 0-42.197334-42.197333h-1.92a42.24 42.24 0 0 0 0 84.394666h1.92a42.24 42.24 0 0 0 42.197334-42.197333zM554.666667 896a41.728 41.728 0 0 0-41.728-41.728h-1.877334a41.728 41.728 0 0 0 0 83.456h1.877334c23.04 0 41.728-18.688 41.728-41.728z" fill="#D4D4D4" p-id="1987"></path></svg>