<?xml version="1.0" standalone="no"?><!DOCTYPE svg PUBLIC "-//W3C//DTD SVG 1.1//EN" "http://www.w3.org/Graphics/SVG/1.1/DTD/svg11.dtd"><svg t="1696833925872" class="icon" viewBox="0 0 1024 1024" version="1.1" xmlns="http://www.w3.org/2000/svg" p-id="8824" xmlns:xlink="http://www.w3.org/1999/xlink" width="200" height="200"><path d="M895.989333 542.378667c0 20.437333-3.2 40.565333-9.514666 59.829333l-60.821334-19.925333c4.202667-12.821333 6.336-26.24 6.336-39.893334 0-58.826667-39.786667-109.888-96.757333-124.170666l0.352-1.418667-21.824 0.458667c-0.949333-45.578667-19.594667-88.053333-52.490667-119.616-32.896-31.552-76.106667-48.394667-121.696-47.456-62.112 1.290667-117.408 35.808-146.282666 88.757333 16.501333 5.354667 32.32 12.832 47.072 22.346667 31.808 20.512 57.194667 49.386667 73.418666 83.498666l-57.802666 27.488c-11.104-23.36-28.501333-43.136-50.304-57.194666-22.346667-14.4-48.277333-22.016-75.018667-22.016-76.458667 0-138.666667 62.208-138.666667 138.666666 0 22.122667 5.045333 43.253333 14.997334 62.805334l-57.034667 29.034666c-14.368-28.224-21.962667-59.978667-21.962667-91.84 0-110.538667 88.96-200.682667 199.050667-202.624 15.765333-37.248 40.832-69.653333 73.408-94.634666 39.818667-30.528 87.466667-47.221333 137.76-48.266667 62.677333-1.344 122.090667 21.866667 167.328 65.258667 31.989333 30.677333 54.154667 68.874667 64.874667 110.773333 32.896 12.181333 62.304 33.418667 84.224 61.141333 27.072 34.176 41.354667 75.328 41.354666 118.997334z m-57.365333 62.368c-37.802667 4.704-64.213333 15.424-87.52 24.885333-32.117333 13.034667-59.850667 24.288-118.368 22.549333-58.517333-1.749333-85.557333-14.656-116.864-29.589333-33.045333-15.765333-70.506667-33.642667-142.506667-35.797333-72.010667-2.154667-110.442667 13.450667-144.352 27.221333-15.797333 6.410667-30.72 12.469333-48.821333 16.693333-17.216 4.010667-27.914667 21.216-23.904 38.432s21.216 27.914667 38.421333 23.904c22.997333-5.354667 40.981333-12.661333 58.378667-19.722666 32.106667-13.034667 59.84-24.288 118.357333-22.549334 58.517333 1.749333 85.557333 14.656 116.864 29.589334 33.045333 15.765333 70.506667 33.642667 142.506667 35.797333 4.522667 0.138667 8.906667 0.202667 13.184 0.202667 63.626667 0 99.392-14.517333 131.168-27.424 21.546667-8.746667 41.898667-17.013333 71.349333-20.672 17.536-2.176 29.984-18.165333 27.808-35.701334s-18.144-29.994667-35.701333-27.818666z m-4.661333 121.514666c-37.802667 4.704-64.213333 15.424-87.52 24.885334-32.117333 13.034667-59.850667 24.288-118.368 22.549333-58.517333-1.749333-85.557333-14.656-116.864-29.589333-33.045333-15.765333-70.506667-33.642667-142.506667-35.797334-72.010667-2.154667-110.442667 13.450667-144.352 27.221334-15.797333 6.410667-30.72 12.469333-48.821333 16.693333-17.216 4.010667-27.914667 21.216-23.904 38.421333 4.010667 17.205333 21.216 27.914667 38.421333 23.904 22.997333-5.354667 40.981333-12.661333 58.378667-19.722666 32.106667-13.034667 59.84-24.298667 118.357333-22.549334 58.517333 1.749333 85.557333 14.656 116.864 29.589334 33.045333 15.765333 70.506667 33.642667 142.506667 35.797333 4.522667 0.138667 8.906667 0.202667 13.184 0.202667 63.626667 0 99.392-14.517333 131.178666-27.424 21.546667-8.746667 41.898667-17.013333 71.349334-20.672 17.536-2.186667 29.984-18.165333 27.808-35.701334s-18.176-29.994667-35.712-27.808z" p-id="8825"></path></svg>