<?xml version="1.0" standalone="no"?><!DOCTYPE svg PUBLIC "-//W3C//DTD SVG 1.1//EN" "http://www.w3.org/Graphics/SVG/1.1/DTD/svg11.dtd"><svg t="1696840200563" class="icon" viewBox="0 0 1024 1024" version="1.1" xmlns="http://www.w3.org/2000/svg" p-id="3411" xmlns:xlink="http://www.w3.org/1999/xlink" width="200" height="200"><path d="M816.9 356.3h-0.3C813.1 191 678.1 58.1 512 58.1S211 191 207.5 356.3h-0.4c-86.9 0-158 71.1-158 158.1s71.1 158.1 158.1 158.1H817c87 0 158.1-71.1 158.1-158.1-0.1-87-71.3-158.1-158.2-158.1z" fill="#FFFFFF" p-id="3412"></path><path d="M816.9 701.6H207.2c-49.8 0-96.8-19.5-132.2-54.9-35.5-35.5-55-82.5-55-132.3s19.5-96.8 54.9-132.3c28.9-28.9 65.5-47.3 105.1-53 7.8-77.5 42.1-149.5 98.4-204.7C341.1 62.9 424.1 29 512 29s171 33.9 233.7 95.4c56.3 55.2 90.6 127 98.4 204.7 39.5 5.7 76.1 24.1 105 53 35.4 35.4 54.9 82.4 54.9 132.2s-19.5 96.8-54.9 132.3c-35.5 35.4-82.3 55-132.2 55zM207.2 385.4c-71.1 0-129 57.8-129 129 0 71 57.8 129 129 129H817c71.1 0 129-57.8 129-129s-57.8-129-129-129h-28.8l-0.6-28.5C784.4 208.2 660.8 87.2 512 87.2s-272.3 121-275.4 269.6l-0.6 28.5h-28.8zM413.1 970.3c-12.1-8.7-14.9-25.5-6.3-37.7l117.4-164.4c8.7-12.1 25.5-14.9 37.7-6.3 12.1 8.7 14.9 25.5 6.3 37.7L450.8 964c-8.7 12.2-25.6 15-37.7 6.3z" fill="#1677B3" p-id="3413"></path><path d="M428.7 995.3c-9.5 0-19-2.8-27.3-8.7-10.2-7.3-17-18.1-19-30.5s0.8-24.8 8.1-35l117.4-164.4c7.3-10.2 18.1-17 30.5-19 12.4-2.1 24.8 0.8 35 8.1s17 18.1 19 30.5c2.1 12.4-0.8 24.8-8.1 35L467 975.7c-9.1 12.8-23.6 19.6-38.3 19.6zM546.2 777c-2.2 0-4.3 1-5.7 2.9L423.1 944.3c-1.5 2.1-1.4 4.2-1.2 5.2 0.2 1.1 0.8 3.1 2.8 4.5 3.1 2.2 7.5 1.5 9.8-1.6L551.9 788c2.2-3.1 1.5-7.5-1.6-9.8-1.3-0.8-2.7-1.2-4.1-1.2zM648.6 970.3c-12.1-8.7-14.9-25.5-6.3-37.7l117.4-164.4c8.7-12.1 25.5-14.9 37.7-6.3 12.1 8.7 14.9 25.5 6.3 37.7L686.3 964c-8.7 12.2-25.6 15-37.7 6.3z" fill="#1677B3" p-id="3414"></path><path d="M664.2 995.3c-9.5 0-19-2.8-27.3-8.7-10.2-7.3-17-18.1-19-30.5s0.8-24.8 8.1-35l117.4-164.4c7.3-10.2 18.1-17 30.5-19 12.4-2.1 24.8 0.8 35 8.1s17 18.1 19 30.5c2.1 12.4-0.8 24.8-8.1 35L702.5 975.7c-9.1 12.8-23.6 19.6-38.3 19.6zM781.7 777c-2.2 0-4.3 1-5.7 2.9L658.6 944.3c-1.5 2.1-1.4 4.2-1.2 5.2 0.2 1.1 0.8 3.1 2.8 4.5 3.1 2.2 7.5 1.5 9.8-1.6L787.4 788c2.2-3.1 1.5-7.5-1.6-9.8-1.3-0.8-2.7-1.2-4.1-1.2z" fill="#1677B3" p-id="3415"></path><path d="M327.7 879.9l-46.4-16.7 1.4-141.9-106.5 131.1 46.5 16.7-1.4 141.9z" fill="#FED71A" p-id="3416"></path></svg>