<?xml version="1.0" standalone="no"?><!DOCTYPE svg PUBLIC "-//W3C//DTD SVG 1.1//EN" "http://www.w3.org/Graphics/SVG/1.1/DTD/svg11.dtd"><svg t="1696839912864" class="icon" viewBox="0 0 1024 1024" version="1.1" xmlns="http://www.w3.org/2000/svg" p-id="1995" xmlns:xlink="http://www.w3.org/1999/xlink" width="200" height="200"><path d="M903.4 183.4C814.8 161.9 735 222.7 725 305h56.7c8.2-41.5 44.4-72.9 88-74 51.1-1.2 94.1 40.6 94.2 91.7 0.1 49.6-39 90.1-88 92.2v0.1H30c-11 0-20 9-20 20v10.7c0 11 9 20 20 20h828.9c2.9 0.2 5.7 0.3 8.6 0.3s5.8-0.1 8.6-0.3h2.9c1.8 0 3.5-0.3 5.2-0.7 82.7-9.6 144-89.4 122.5-178.3-12.3-50.9-52.3-91-103.3-103.3zM709.6 821c-60 0.2-109.5-44.7-116.6-102.7h46.2c6.9 34.7 37.8 60.8 74.6 60.3 39.7-0.5 72.5-32.5 73.9-72.2 1.5-41.6-30.9-75.9-71.7-77.7v-0.1H26.3c-9 0-16.3-7.3-16.3-16.3v-8.8c0-9 7.3-16.3 16.3-16.3h675.8c2.3-0.1 4.7-0.2 7-0.2 2.4 0 4.7 0.1 7 0.2h2.4c1.5 0 2.9 0.2 4.2 0.6 58.3 6.7 103.5 56.3 103.4 116.4-0.1 64.1-52.5 116.6-116.5 116.8zM893 550H29c-10.4 0-19-8.5-19-19s8.5-19 19-19h864c10.5 0 19 8.5 19 19s-8.5 19-19 19z" fill="#1677B3" p-id="1996"></path></svg>