<?xml version="1.0" standalone="no"?><!DOCTYPE svg PUBLIC "-//W3C//DTD SVG 1.1//EN" "http://www.w3.org/Graphics/SVG/1.1/DTD/svg11.dtd"><svg t="1696833885679" class="icon" viewBox="0 0 1024 1024" version="1.1" xmlns="http://www.w3.org/2000/svg" p-id="5985" xmlns:xlink="http://www.w3.org/1999/xlink" width="200" height="200"><path d="M372 417.4c-20.7-11.8-44.7-18.5-70.3-18.5-63.2 0-116.8 41.2-135.4 98.3 34.9 46.9 90.7 77.3 153.6 77.3 105.7 0 191.3-85.7 191.3-191.3 0-32.8-8.3-63.6-22.8-90.6-53.8 23.7-96.2 68.9-116.4 124.8z" fill="#FFCF2C" p-id="5986"></path><path d="M178.5 417.9c16-16 34.6-28.6 55.4-37.3 21.5-9.1 44.3-13.7 67.9-13.7 18.4 0 36.6 2.9 53.9 8.5 6.4-12.2 13.9-23.9 22.3-35 15.2-19.9 33.2-37.4 53.6-52 12.5-8.9 25.6-16.6 39.3-23-35-44.8-89.5-73.6-150.8-73.6-105.7 0-191.3 85.7-191.3 191.3 0 28.4 6.2 55.4 17.3 79.6 8.3-16.5 19.1-31.5 32.4-44.8z" fill="#FFCF2C" p-id="5987"></path><path d="M960.5 686.5c0-80.2-65-145.3-145.3-145.3-9.8 0-19.4 1-28.7 2.8 4.3-17 6.5-34.7 6.5-53 0-119.8-97.1-216.9-216.9-216.9-94 0-174 59.8-204.1 143.3-20.7-11.8-44.7-18.5-70.3-18.5-78.6 0-142.3 63.7-142.3 142.3 0 24.5 6.2 47.5 17.1 67.6h-0.4c-61.4 0-111.2 49.8-111.2 111.2S114.6 831.2 176 831.2c5.5 0 10.8-0.4 16-1.2l0.2 1.7h639.2l-0.4-0.9c72.8-7.9 129.5-69.5 129.5-144.3z" fill="#82B6FF" p-id="5988"></path></svg>