<?xml version="1.0" standalone="no"?><!DOCTYPE svg PUBLIC "-//W3C//DTD SVG 1.1//EN" "http://www.w3.org/Graphics/SVG/1.1/DTD/svg11.dtd"><svg t="1696844681864" class="icon" viewBox="0 0 1024 1024" version="1.1" xmlns="http://www.w3.org/2000/svg" p-id="9179" xmlns:xlink="http://www.w3.org/1999/xlink" width="200" height="200"><path d="M41.00096 551.7312a168.59136 168.59136 0 0 1 144.75264-170.37312c-0.96256-9.216-1.4336-18.55488-1.4336-27.93472C184.32 203.44832 306.42176 81.92 457.0112 81.92c119.7056 0 223.78496 77.4144 259.56352 188.08832C730.07104 267.50976 743.8336 266.24 757.76 266.24c124.416 0 225.28 100.864 225.28 225.28 0 117.51424-89.98912 214.016-204.8 224.3584v-0.16384h-0.24576a20.48 20.48 0 1 1 0.24576-40.96v-0.04096a184.34048 184.34048 0 1 0-70.51264-360.6528l-20.43904 5.7344-4.99712-20.62336C657.408 196.5056 564.6336 122.88 457.0112 122.88 329.0112 122.88 225.28 226.0992 225.28 353.42336c0 14.5408 1.35168 28.89728 4.01408 42.96704l4.58752 24.22784-24.65792 0.06144A127.5904 127.5904 0 0 0 82.00192 552.96H81.92a20.48 20.48 0 1 1-40.91904-1.2288zM624.64 696.32a122.88 122.88 0 1 1-118.92736 153.9072 20.48 20.48 0 1 1 39.64928-10.32192A81.96096 81.96096 0 0 0 706.56 819.2a81.92 81.92 0 0 0-81.92-81.92H61.44a20.48 20.48 0 0 1 0-40.96h563.2zM409.6 614.4a92.16 92.16 0 1 0-86.56896-123.88352 20.48 20.48 0 0 1-38.44096-14.09024 133.16096 133.16096 0 1 1 141.70112 177.88928 20.45952 20.45952 0 0 1-6.4512 1.04448H61.44a20.48 20.48 0 0 1 0-40.96h348.16z" fill="#3973DC" p-id="9180"></path></svg>