<?xml version="1.0" standalone="no"?><!DOCTYPE svg PUBLIC "-//W3C//DTD SVG 1.1//EN" "http://www.w3.org/Graphics/SVG/1.1/DTD/svg11.dtd"><svg t="1696840258764" class="icon" viewBox="0 0 1024 1024" version="1.1" xmlns="http://www.w3.org/2000/svg" p-id="4046" xmlns:xlink="http://www.w3.org/1999/xlink" width="200" height="200"><path d="M695.2 222.6c-56.2 0-102.6 47-109.2 107.6h43.5c6.4-36 35-63.2 69.2-63.2 39 0 70.6 35.2 70.6 78.6 0 42.3-29.9 76.7-67.5 78.5v0.1H52.9c-8.4 0-15.3 7.7-15.3 17.1v9.1c0 9.4 6.9 17.1 15.3 17.1h635.7a72.863 72.863 0 0 0 13.2 0h2.2c1.4 0 2.7-0.3 4-0.6 54.8-7.1 97.2-58.8 97.2-121.7 0-67.7-49.2-122.6-110-122.6zM741.5 676.5c0-57.6-39-105.1-89.2-111.6-1.2-0.3-2.4-0.5-3.7-0.5h-2c-2-0.2-4-0.2-6-0.2s-4 0.1-6 0.2h-583c-7.7 0-14.1 7-14.1 15.7v8.4c0 8.6 6.3 15.7 14.1 15.7h594.9v0.1c34.5 1.6 61.9 33.2 61.9 72 0 39.8-29 72-64.7 72-31.4 0-57.5-24.9-63.4-57.9h-39.9c6 55.6 48.6 98.7 100.1 98.7 55.9-0.2 101-50.5 101-112.6zM729.7 540.8H48.5c-9.1 0-16.5-7.4-16.5-16.5v-3.7c0-9.1 7.4-16.5 16.5-16.5h681.2c9.1 0 16.5 7.4 16.5 16.5v3.7c0 9.1-7.4 16.5-16.5 16.5z" fill="#1677B3" p-id="4047"></path><path d="M853.4 408.8m-28.2 0a28.2 28.2 0 1 0 56.4 0 28.2 28.2 0 1 0-56.4 0Z" fill="#757575" p-id="4048"></path><path d="M544 350.8m-29.8 0a29.8 29.8 0 1 0 59.6 0 29.8 29.8 0 1 0-59.6 0Z" fill="#757575" p-id="4049"></path><path d="M676.2 377.3m-25.7 0a25.7 25.7 0 1 0 51.4 0 25.7 25.7 0 1 0-51.4 0Z" fill="#757575" p-id="4050"></path><path d="M805.2 513m-8.9 0a8.9 8.9 0 1 0 17.8 0 8.9 8.9 0 1 0-17.8 0Z" fill="#757575" p-id="4051"></path><path d="M778.5 606.5m-17.8 0a17.8 17.8 0 1 0 35.6 0 17.8 17.8 0 1 0-35.6 0Z" fill="#757575" p-id="4052"></path><path d="M506.508996 833.594088a35.3 35.3 0 1 0 10.603491-69.799183 35.3 35.3 0 1 0-10.603491 69.799183Z" fill="#757575" p-id="4053"></path><path d="M588.4 662m-21 0a21 21 0 1 0 42 0 21 21 0 1 0-42 0Z" fill="#757575" p-id="4054"></path><path d="M787.4 715.5m-8.9 0a8.9 8.9 0 1 0 17.8 0 8.9 8.9 0 1 0-17.8 0Z" fill="#757575" p-id="4055"></path><path d="M500.7 236.3m-49.7 0a49.7 49.7 0 1 0 99.4 0 49.7 49.7 0 1 0-99.4 0Z" fill="#757575" p-id="4056"></path><path d="M761.663464 858.737615a49 49 0 1 0 69.295256-69.297674 49 49 0 1 0-69.295256 69.297674Z" fill="#757575" p-id="4057"></path><path d="M599.4 859.6a47.3 47.4 0 1 0 94.6 0 47.3 47.4 0 1 0-94.6 0Z" fill="#757575" p-id="4058"></path><path d="M659.4 706.7m-26.6 0a26.6 26.6 0 1 0 53.2 0 26.6 26.6 0 1 0-53.2 0Z" fill="#757575" p-id="4059"></path><path d="M684.838611 341.945769a30.3 30.3 0 1 0 42.849924-42.851419 30.3 30.3 0 1 0-42.849924 42.851419Z" fill="#757575" p-id="4060"></path><path d="M886 714m-43 0a43 43 0 1 0 86 0 43 43 0 1 0-86 0Z" fill="#757575" p-id="4061"></path><path d="M904 580.6m-25.4 0a25.4 25.4 0 1 0 50.8 0 25.4 25.4 0 1 0-50.8 0Z" fill="#757575" p-id="4062"></path><path d="M939.9 495.3m-38.1 0a38.1 38.1 0 1 0 76.2 0 38.1 38.1 0 1 0-76.2 0Z" fill="#757575" p-id="4063"></path><path d="M983.2 658.7m-17.8 0a17.8 17.8 0 1 0 35.6 0 17.8 17.8 0 1 0-35.6 0Z" fill="#757575" p-id="4064"></path></svg>