<?xml version="1.0" standalone="no"?><!DOCTYPE svg PUBLIC "-//W3C//DTD SVG 1.1//EN" "http://www.w3.org/Graphics/SVG/1.1/DTD/svg11.dtd"><svg t="1696833702102" class="icon" viewBox="0 0 1131 1024" version="1.1" xmlns="http://www.w3.org/2000/svg" p-id="4206" xmlns:xlink="http://www.w3.org/1999/xlink" width="220.8984375" height="200"><path d="M619.789474 512m-269.473685 0a269.473684 269.473684 0 1 0 538.947369 0 269.473684 269.473684 0 1 0-538.947369 0Z" fill="#FBBA22" p-id="4207"></path><path d="M544.336842 619.789474c-57.936842 0-109.136842 28.294737-142.821053 71.410526-21.557895-29.642105-55.242105-48.505263-92.968421-48.505263-57.936842 0-105.094737 43.115789-114.526315 99.705263h-44.463158c-67.368421 0-122.610526 56.589474-122.610527 126.652632s55.242105 126.652632 122.610527 126.652631h394.778947C645.389474 997.052632 727.578947 912.168421 727.578947 808.421053s-82.189474-188.631579-183.242105-188.631579z" fill="#FFFFFF" p-id="4208"></path><path d="M885.221053 273.515789c6.736842 0 13.473684-2.694737 18.863158-8.08421l78.147368-78.147368c10.778947-10.778947 10.778947-26.947368 0-37.726316-10.778947-10.778947-26.947368-10.778947-37.726316 0l-78.147368 78.147368c-10.778947 10.778947-10.778947 26.947368 0 37.726316 5.389474 5.389474 12.126316 8.084211 18.863158 8.08421zM904.084211 758.568421c-10.778947-10.778947-26.947368-10.778947-37.726316 0-10.778947 10.778947-10.778947 26.947368 0 37.726316l78.147368 78.147368c5.389474 5.389474 12.126316 8.084211 18.863158 8.084211 6.736842 0 13.473684-2.694737 18.863158-8.084211 10.778947-10.778947 10.778947-26.947368 0-37.726316l-78.147368-78.147368zM335.494737 265.431579c5.389474 5.389474 12.126316 8.084211 18.863158 8.08421 6.736842 0 13.473684-2.694737 18.863158-8.08421 10.778947-10.778947 10.778947-26.947368 0-37.726316L296.421053 149.557895c-10.778947-10.778947-26.947368-10.778947-37.726316 0-10.778947 10.778947-10.778947 26.947368 0 37.726316l76.8 78.147368zM619.789474 163.031579c14.821053 0 26.947368-12.126316 26.947368-26.947368V26.947368c0-14.821053-12.126316-26.947368-26.947368-26.947368s-26.947368 12.126316-26.947369 26.947368v109.136843c0 14.821053 12.126316 26.947368 26.947369 26.947368zM134.736842 538.947368h109.136842c14.821053 0 26.947368-12.126316 26.947369-26.947368s-12.126316-26.947368-26.947369-26.947368H134.736842c-14.821053 0-26.947368 12.126316-26.947368 26.947368s12.126316 26.947368 26.947368 26.947368zM1104.842105 485.052632h-109.136842c-14.821053 0-26.947368 12.126316-26.947368 26.947368s12.126316 26.947368 26.947368 26.947368H1104.842105c14.821053 0 26.947368-12.126316 26.947369-26.947368s-12.126316-26.947368-26.947369-26.947368z" fill="#211F1E" p-id="4209"></path><path d="M916.210526 512c0-163.031579-133.389474-296.421053-296.421052-296.421053s-296.421053 133.389474-296.421053 296.421053c0 37.726316 6.736842 75.452632 20.210526 109.136842-10.778947-2.694737-22.905263-4.042105-35.031579-4.042105-61.978947 0-115.873684 40.421053-136.08421 99.705263h-22.905263C67.368421 716.8 0 785.515789 0 870.4 0 955.284211 67.368421 1024 149.557895 1024h394.778947C660.210526 1024 754.526316 926.989474 754.526316 808.421053c0-10.778947-1.347368-21.557895-2.694737-30.989474C848.842105 728.926316 916.210526 627.873684 916.210526 512zM544.336842 970.105263H149.557895C97.010526 970.105263 53.894737 925.642105 53.894737 870.4c0-55.242105 43.115789-99.705263 95.663158-99.705263h44.463158c13.473684 0 24.252632-9.431579 26.947368-22.905263 6.736842-44.463158 44.463158-76.8 87.578947-76.8 28.294737 0 53.894737 13.473684 71.410527 36.378947 5.389474 6.736842 13.473684 10.778947 21.557894 10.778947 8.084211 0 16.168421-4.042105 21.557895-10.778947 29.642105-39.073684 74.105263-60.631579 121.263158-60.631579C630.568421 646.736842 700.631579 719.494737 700.631579 808.421053s-70.063158 161.684211-156.294737 161.68421z m192.673684-246.568421C706.021053 646.736842 631.915789 592.842105 544.336842 592.842105c-48.505263 0-94.315789 17.515789-130.694737 47.157895-22.905263-37.726316-36.378947-80.842105-36.378947-128 0-133.389474 109.136842-242.526316 242.526316-242.526316s242.526316 109.136842 242.526315 242.526316c0 91.621053-49.852632 169.768421-125.305263 211.536842z" fill="#211F1E" p-id="4210"></path></svg>