<?xml version="1.0" standalone="no"?><!DOCTYPE svg PUBLIC "-//W3C//DTD SVG 1.1//EN" "http://www.w3.org/Graphics/SVG/1.1/DTD/svg11.dtd"><svg t="1696839899051" class="icon" viewBox="0 0 1024 1024" version="1.1" xmlns="http://www.w3.org/2000/svg" p-id="1856" xmlns:xlink="http://www.w3.org/1999/xlink" width="200" height="200"><path d="M871.5 317c-73.3 0-133.8 55-142.4 126h56.7c8.4-42.2 45.6-74 90.2-74 50.8 0 92 41.2 92 92 0 49.5-39 89.8-88 91.9v0.1H34c-11 0-20 9-20 20v10.7c0 11 9 20 20 20h828.9c2.9 0.2 5.7 0.3 8.6 0.3s5.8-0.1 8.6-0.3h2.9c1.8 0 3.5-0.3 5.2-0.7 71.4-8.3 126.8-68.9 126.8-142.5 0-79.3-64.2-143.5-143.5-143.5z" fill="#1677B3" p-id="1857"></path></svg>