<svg id="小雨" xmlns="http://www.w3.org/2000/svg" xmlns:xlink="http://www.w3.org/1999/xlink" width="135" height="105" viewBox="0 0 135 105">
  <defs>
    <style>
      .cls-1, .cls-2, .cls-3, .cls-4 {
        fill: #fff;
        fill-rule: evenodd;
      }

      .cls-1 {
        filter: url(#filter);
      }

      .cls-2 {
        filter: url(#filter-2);
      }

      .cls-3 {
        filter: url(#filter-3);
      }

      .cls-4 {
        filter: url(#filter-4);
      }
    </style>
    <filter id="filter" x="3033" y="542" width="32" height="36" filterUnits="userSpaceOnUse">
      <feOffset result="offset" dx="0.651" dy="1.891" in="SourceAlpha"/>
      <feGaussianBlur result="blur" stdDeviation="3"/>
      <feFlood result="flood" flood-color="#505fdd" flood-opacity="0.42"/>
      <feComposite result="composite" operator="in" in2="blur"/>
      <feBlend result="blend" in="SourceGraphic"/>
    </filter>
    <filter id="filter-2" x="3077" y="542" width="31" height="36" filterUnits="userSpaceOnUse">
      <feOffset result="offset" dx="0.651" dy="1.891" in="SourceAlpha"/>
      <feGaussianBlur result="blur" stdDeviation="3"/>
      <feFlood result="flood" flood-color="#505fdd" flood-opacity="0.42"/>
      <feComposite result="composite" operator="in" in2="blur"/>
      <feBlend result="blend" in="SourceGraphic"/>
    </filter>
    <filter id="filter-3" x="3012" y="473" width="130" height="85" filterUnits="userSpaceOnUse">
      <feOffset result="offset" dx="0.651" dy="1.891" in="SourceAlpha"/>
      <feGaussianBlur result="blur" stdDeviation="3"/>
      <feFlood result="flood" flood-color="#505fdd" flood-opacity="0.42"/>
      <feComposite result="composite" operator="in" in2="blur"/>
      <feBlend result="blend" in="SourceGraphic"/>
      <feFlood result="flood-2" flood-color="#e8e8e8"/>
      <feComposite result="composite-2" operator="in" in2="SourceGraphic"/>
      <feBlend result="blend-2" in2="blend"/>
    </filter>
    <filter id="filter-4" x="3007" y="504" width="76" height="54" filterUnits="userSpaceOnUse">
      <feOffset result="offset" dx="0.651" dy="1.891" in="SourceAlpha"/>
      <feGaussianBlur result="blur" stdDeviation="3"/>
      <feFlood result="flood" flood-color="#505fdd" flood-opacity="0.42"/>
      <feComposite result="composite" operator="in" in2="blur"/>
      <feBlend result="blend" in="SourceGraphic"/>
      <feFlood result="flood-2" flood-color="#e8e8e8"/>
      <feComposite result="composite-2" operator="in" in2="SourceGraphic"/>
      <feBlend result="blend-2" in2="blend"/>
    </filter>
  </defs>
  <path id="矩形_1_拷贝_2" data-name="矩形 1 拷贝 2" class="cls-1" d="M3049.03,551.635l-6.49,10.984a1.571,1.571,0,0,0,.6,2.166,1.635,1.635,0,0,0,2.21-.58l6.49-10.985a1.559,1.559,0,0,0-.59-2.165A1.647,1.647,0,0,0,3049.03,551.635Z" transform="translate(-3007 -473)"/>
  <path id="矩形_1_拷贝_4" data-name="矩形 1 拷贝 4" class="cls-2" d="M3092.91,551.226l-6.46,10.891a1.556,1.556,0,0,0,.59,2.147,1.643,1.643,0,0,0,2.21-.576l6.45-10.89a1.547,1.547,0,0,0-.59-2.147A1.631,1.631,0,0,0,3092.91,551.226Z" transform="translate(-3007 -473)"/>
  <path id="椭圆_4_拷贝" data-name="椭圆 4 拷贝" class="cls-3" d="M3042.12,503.741a20.271,20.271,0,1,1-20.36,20.271A20.318,20.318,0,0,1,3042.12,503.741ZM3069.43,481a31.642,31.642,0,1,1-31.77,31.641A31.7,31.7,0,0,1,3069.43,481Zm-27.32,42.5h71.49v20.783h-71.49V523.5Zm66.78-20.76a21.022,21.022,0,1,1-21.11,21.022A21.065,21.065,0,0,1,3108.89,502.74Z" transform="translate(-3007 -473)"/>
  <path id="椭圆_4_拷贝_2" data-name="椭圆 4 拷贝 2" class="cls-4" d="M3026.24,523.8A10.141,10.141,0,1,1,3016,533.946,10.194,10.194,0,0,1,3026.24,523.8Zm13.73-11.381a15.832,15.832,0,1,1-15.98,15.831A15.91,15.91,0,0,1,3039.97,512.424Zm-13.73,21.261h35.95v10.4h-35.95v-10.4Zm33.58-10.38a10.511,10.511,0,1,1-10.62,10.51A10.571,10.571,0,0,1,3059.82,523.3Z" transform="translate(-3007 -473)"/>
</svg>
