<?xml version="1.0" standalone="no"?><!DOCTYPE svg PUBLIC "-//W3C//DTD SVG 1.1//EN" "http://www.w3.org/Graphics/SVG/1.1/DTD/svg11.dtd"><svg t="1696840428461" class="icon" viewBox="0 0 1024 1024" version="1.1" xmlns="http://www.w3.org/2000/svg" p-id="2208" xmlns:xlink="http://www.w3.org/1999/xlink" width="200" height="200"><path d="M236.86 741.45c-95.37-46.11-135.3-160.81-89.19-256.18a191.81 191.81 0 0 1 122.52-101.65c22.4-113.07 122.16-198.3 241.8-198.3s219.39 85.24 241.8 198.3c102.25 27.69 162.69 133 135 235.29A191.81 191.81 0 0 1 787.2 741.42h-0.05a27.39 27.39 0 0 1-23.5-49.49 136.95 136.95 0 0 0-59.93-260.13c0-105.89-85.84-191.73-191.73-191.73S320.26 325.91 320.26 431.8a136.95 136.95 0 0 0-58.78 260.7 27.4 27.4 0 1 1-24.65 48.95z" fill="#0057D9" p-id="2209"></path><path d="M429.82 838.68c-22.68 0-41.08-19.61-41.08-43.82q0-24.2 41.08-65.74 41.08 41.54 41.08 65.74c0 24.21-18.4 43.82-41.08 43.82zM594.16 838.68c-22.68 0-41.08-19.61-41.08-43.82q0-24.2 41.08-65.74 41.08 41.54 41.08 65.74c0 24.21-18.4 43.82-41.08 43.82z" fill="#FFCC00" p-id="2210"></path></svg>