<?xml version="1.0" standalone="no"?><!DOCTYPE svg PUBLIC "-//W3C//DTD SVG 1.1//EN" "http://www.w3.org/Graphics/SVG/1.1/DTD/svg11.dtd"><svg t="1696840171160" class="icon" viewBox="0 0 1024 1024" version="1.1" xmlns="http://www.w3.org/2000/svg" p-id="3120" xmlns:xlink="http://www.w3.org/1999/xlink" width="200" height="200"><path d="M797.6 381h-0.3c-3.2-155-129.9-279.7-285.7-279.7S229.2 226 225.9 381h-0.4C144 381 77.3 447.7 77.3 529.3c0 81.6 66.7 148.3 148.3 148.3h572.1c81.6 0 148.3-66.7 148.3-148.3 0-81.5-66.8-148.3-148.4-148.3z" fill="#FFFFFF" p-id="3121"></path><path d="M797.6 705h-572c-46.7 0-90.8-18.3-124-51.5C68.3 620.1 50 576.1 50 529.4c0-46.7 18.3-90.8 51.5-124.1 27.1-27.1 61.5-44.3 98.6-49.7 7.3-72.8 39.5-140.2 92.3-192C351.3 105.8 429.1 74 511.6 74s160.3 31.8 219.2 89.5c52.8 51.8 85 119.2 92.3 192 37.1 5.4 71.4 22.6 98.5 49.7 33.2 33.2 51.5 77.3 51.5 124s-18.3 90.8-51.5 124.1-77.2 51.7-124 51.7z m-572-296.7c-66.7 0-121 54.3-121 121s54.3 121 121 121h572.1c66.7 0 121-54.3 121-121s-54.3-121-121-121h-27l-0.5-26.8c-3-139.5-118.9-252.9-258.5-252.9s-255.6 113.5-258.5 253l-0.5 26.8h-27.1z" fill="#1677B3" p-id="3122"></path><path d="M242.613792 894.840936a51 72.5 25.658 1 0 62.784774-130.702226 51 72.5 25.658 1 0-62.784774 130.702226Z" fill="#1677B3" p-id="3123"></path><path d="M447.112091 894.838232a51 72.5 25.658 1 0 62.784774-130.702227 51 72.5 25.658 1 0-62.784774 130.702227Z" fill="#1677B3" p-id="3124"></path><path d="M651.610957 894.836429a51 72.5 25.658 1 0 62.784774-130.702226 51 72.5 25.658 1 0-62.784774 130.702226Z" fill="#1677B3" p-id="3125"></path></svg>