<?xml version="1.0" standalone="no"?><!DOCTYPE svg PUBLIC "-//W3C//DTD SVG 1.1//EN" "http://www.w3.org/Graphics/SVG/1.1/DTD/svg11.dtd"><svg t="1676606650362" class="icon" viewBox="0 0 1024 1024" version="1.1" xmlns="http://www.w3.org/2000/svg" p-id="2125" xmlns:xlink="http://www.w3.org/1999/xlink" width="200" height="200"><path d="M640.213333 362.752m-192 0a192 192 0 1 0 384 0 192 192 0 1 0-384 0Z" fill="#FFE97C" p-id="2126"></path><path d="M256.085333 256m-42.666666 0a42.666667 42.666667 0 1 0 85.333333 0 42.666667 42.666667 0 1 0-85.333333 0Z" fill="#FFE97C" p-id="2127"></path><path d="M83.498667 576.128a106.666667 106.581333 90 1 0 213.162666 0 106.666667 106.581333 90 1 0-213.162666 0Z" fill="#FFE97C" p-id="2128"></path><path d="M426.666667 85.333333m-42.666667 0a42.666667 42.666667 0 1 0 85.333333 0 42.666667 42.666667 0 1 0-85.333333 0Z" fill="#FFE97C" p-id="2129"></path><path d="M768 682.666667m-42.666667 0a42.666667 42.666667 0 1 0 85.333334 0 42.666667 42.666667 0 1 0-85.333334 0Z" fill="#FFE97C" p-id="2130"></path><path d="M664.704 106.666667c159.786667 3.072 294.613333 173.994667 238.421333 340.096 0 0-4.096 9.045333-10.752 12.330666-16.512 8.149333-35.413333-7.424-26.88-34.517333 41.216-140.885333-93.269333-302.421333-247.082666-270.890667-132.266667 27.093333-211.285333 201.173333-139.392 319.445334 37.376 61.44 106.624 101.333333 179.626666 102.698666 100.48 0.64 200.917333 0.128 301.354667 0.170667 23.296 1.152 29.098667 38.570667 2.090667 42.581333-102.229333 4.949333-204.8 1.834667-307.285334-0.128-161.962667-5.12-292.949333-188.458667-232.704-346.752 36.906667-97.024 136.149333-165.674667 242.602667-165.034666zM217.813333 384.042667c102.869333 3.925333 188.202667 108.373333 160.853334 213.717333-6.954667 26.837333-48.128 24.789333-39.424-19.072 16.384-90.922667-87.722667-184.533333-181.333334-139.392-99.797333 48.128-78.378667 238.506667 52.181334 243.456 93.568 1.194667 187.093333-0.128 280.533333-0.213333 22.784 0.938667 25.301333 39.466667 1.92 42.581333-100.181333 4.48-202.581333 11.477333-300.842667-1.024-94.890667-12.074667-168.362667-115.968-143.658666-212.010667 19.114667-74.24 91.221333-129.024 169.770666-128.042666z" fill="#FFB28E" p-id="2131"></path><path d="M896 789.333333a21.333333 21.333333 0 0 0-21.333333-21.333333h-725.333334a21.333333 21.333333 0 0 0 0 42.666667h725.333334a21.333333 21.333333 0 0 0 21.333333-21.333334z" fill="#8ECDFF" p-id="2132"></path><path d="M875.776 768.042667l1.066667 0.085333 1.066666 0.128 1.066667 0.170667 1.024 0.256 1.024 0.256 0.981333 0.341333 0.981334 0.384 0.938666 0.426667 0.896 0.469333 0.896 0.512 0.853334 0.554667 0.853333 0.597333 0.810667 0.64 0.768 0.682667 0.725333 0.725333 0.725333 0.725333 0.682667 0.768 0.64 0.810667 0.597333 0.853333 0.554667 0.853334 0.512 0.896 0.469333 0.896 0.426667 0.938666 0.384 0.981334 0.341333 0.981333 0.256 1.024 0.256 1.024 0.170667 1.066667 0.128 1.066666 0.085333 1.066667 0.042667 1.109333-0.042667 1.109334-0.085333 1.066666-0.128 1.066667-0.170667 1.066667-0.256 1.024-0.256 1.024-0.341333 0.981333-0.384 0.981333-0.426667 0.938667-0.469333 0.896-0.512 0.896-0.554667 0.853333-0.597333 0.853334-0.64 0.810666-0.682667 0.768-0.725333 0.725334-0.725333 0.725333-0.768 0.682667-0.810667 0.64-0.853333 0.597333-0.853334 0.554667-0.896 0.512-0.896 0.469333-0.938666 0.426667-0.981334 0.384-0.981333 0.341333-1.024 0.256-1.024 0.256-1.066667 0.170667-1.066666 0.128-1.066667 0.085333L874.666667 810.666667h-725.333334l-1.109333-0.042667-1.066667-0.085333-1.066666-0.128-1.066667-0.170667-1.024-0.256-1.024-0.256-0.981333-0.341333-0.981334-0.384-0.938666-0.426667-0.896-0.469333-0.896-0.512-0.853334-0.554667-0.853333-0.597333-0.810667-0.64-0.768-0.682667-0.725333-0.725333-0.725333-0.725334-0.682667-0.768-0.64-0.810666-0.597333-0.853334-0.554667-0.853333-0.512-0.896-0.469333-0.896-0.426667-0.938667-0.384-0.981333-0.341333-0.981333-0.256-1.024-0.256-1.024-0.170667-1.066667-0.128-1.066667-0.085333-1.066666L128 789.333333l0.042667-1.109333 0.085333-1.066667 0.128-1.066666 0.170667-1.066667 0.256-1.024 0.256-1.024 0.341333-0.981333 0.384-0.981334 0.426667-0.938666 0.469333-0.896 0.512-0.896 0.554667-0.853334 0.597333-0.853333 0.64-0.810667 0.682667-0.768 0.725333-0.725333 0.725333-0.725333 0.768-0.682667 0.810667-0.64 0.853333-0.597333 0.853334-0.554667 0.896-0.512 0.896-0.469333 0.938666-0.426667 0.981334-0.384 0.981333-0.341333 1.024-0.256 1.024-0.256 1.066667-0.170667 1.066666-0.128 1.066667-0.085333L149.333333 768h725.333334l1.109333 0.042667z" fill="#FFB28E" p-id="2133"></path><path d="M853.333333 874.666667a21.333333 21.333333 0 0 0-21.333333-21.333334h-42.666667a21.333333 21.333333 0 0 0 0 42.666667h42.666667a21.333333 21.333333 0 0 0 21.333333-21.333333z" fill="#8ECDFF" p-id="2134"></path><path d="M833.109333 853.376l1.066667 0.085333 1.066667 0.128 1.066666 0.170667 1.024 0.256 1.024 0.256 0.981334 0.341333 0.981333 0.384 0.938667 0.426667 0.896 0.469333 0.896 0.512 0.853333 0.554667 0.853333 0.597333 0.810667 0.64 0.768 0.682667 0.725333 0.725333 0.725334 0.725334 0.682666 0.768 0.64 0.810666 0.597334 0.853334 0.554666 0.853333 0.512 0.896 0.469334 0.896 0.426666 0.938667 0.384 0.981333 0.341334 0.981333 0.256 1.024 0.256 1.024 0.170666 1.066667 0.128 1.066667 0.085334 1.066666 0.042666 1.109334-0.042666 1.109333-0.085334 1.066667-0.128 1.066666-0.170666 1.066667-0.256 1.024-0.256 1.024-0.341334 0.981333-0.384 0.981334-0.426666 0.938666-0.469334 0.896-0.512 0.896-0.554666 0.853334-0.597334 0.853333-0.64 0.810667-0.682666 0.768-0.725334 0.725333-0.725333 0.725333-0.768 0.682667-0.810667 0.64-0.853333 0.597333-0.853333 0.554667-0.896 0.512-0.896 0.469333-0.938667 0.426667-0.981333 0.384-0.981334 0.341333-1.024 0.256-1.024 0.256-1.066666 0.170667-1.066667 0.128-1.066667 0.085333L832 896h-42.666667l-1.109333-0.042667-1.066667-0.085333-1.066666-0.128-1.066667-0.170667-1.024-0.256-1.024-0.256-0.981333-0.341333-0.981334-0.384-0.938666-0.426667-0.896-0.469333-0.896-0.512-0.853334-0.554667-0.853333-0.597333-0.810667-0.64-0.768-0.682667-0.725333-0.725333-0.725333-0.725333-0.682667-0.768-0.64-0.810667-0.597333-0.853333-0.554667-0.853334-0.512-0.896-0.469333-0.896-0.426667-0.938666-0.384-0.981334-0.341333-0.981333-0.256-1.024-0.256-1.024-0.170667-1.066667-0.128-1.066666-0.085333-1.066667L768 874.666667l0.042667-1.109334 0.085333-1.066666 0.128-1.066667 0.170667-1.066667 0.256-1.024 0.256-1.024 0.341333-0.981333 0.384-0.981333 0.426667-0.938667 0.469333-0.896 0.512-0.896 0.554667-0.853333 0.597333-0.853334 0.64-0.810666 0.682667-0.768 0.725333-0.725334 0.725333-0.725333 0.768-0.682667 0.810667-0.64 0.853333-0.597333 0.853334-0.554667 0.896-0.512 0.896-0.469333 0.938666-0.426667 0.981334-0.384 0.981333-0.341333 1.024-0.256 1.024-0.256 1.066667-0.170667 1.066666-0.128 1.066667-0.085333L789.333333 853.333333h42.666667l1.109333 0.042667zM810.666667 874.666667v0.554666-1.109333 0.554667z" fill="#FFB28E" p-id="2135"></path><path d="M725.76 874.666667a21.333333 21.333333 0 0 0-21.333333-21.333334H192a21.333333 21.333333 0 0 0 0 42.666667h512.426667a21.333333 21.333333 0 0 0 21.333333-21.333333z" fill="#8ECDFF" p-id="2136"></path><path d="M705.493333 853.376l1.109334 0.085333 1.066666 0.128 1.024 0.170667 1.066667 0.256 0.981333 0.256 1.024 0.341333 0.938667 0.384 0.938667 0.426667 0.938666 0.469333 0.896 0.512 0.853334 0.554667 0.853333 0.597333 0.810667 0.64 0.768 0.682667 0.725333 0.725333 0.725333 0.725334 0.64 0.768 0.64 0.810666 0.597334 0.853334 0.554666 0.853333 0.512 0.896 0.469334 0.896 0.426666 0.938667 0.384 0.981333 0.341334 0.981333 0.298666 1.024 0.256 1.024 0.170667 1.066667 0.128 1.066667 0.085333 1.066666 0.042667 1.109334-0.042667 1.109333-0.085333 1.066667-0.128 1.066666-0.170667 1.066667-0.256 1.024-0.298666 1.024-0.341334 0.981333-0.384 0.981334-0.426666 0.938666-0.469334 0.896-0.512 0.896-0.554666 0.853334-0.597334 0.853333-0.64 0.810667-0.64 0.768-0.725333 0.725333-0.725333 0.725333-0.768 0.682667-0.810667 0.64-0.853333 0.597333-0.853334 0.554667-0.896 0.512-0.938666 0.469333-0.938667 0.426667-0.938667 0.384-1.024 0.341333-0.981333 0.256-1.066667 0.256-1.024 0.170667-1.066666 0.128-1.109334 0.085333-1.066666 0.042667H192l-1.109333-0.042667-1.066667-0.085333-1.066667-0.128-1.066666-0.170667-1.024-0.256-1.024-0.256-0.981334-0.341333-0.981333-0.384-0.938667-0.426667-0.896-0.469333-0.896-0.512-0.853333-0.554667-0.853333-0.597333-0.810667-0.64-0.768-0.682667-0.725333-0.725333-0.725334-0.725333-0.682666-0.768-0.64-0.810667-0.597334-0.853333-0.554666-0.853334-0.512-0.896-0.469334-0.896-0.426666-0.938666-0.384-0.981334-0.341334-0.981333-0.256-1.024-0.256-1.024-0.170666-1.066667-0.128-1.066666-0.085334-1.066667L170.666667 874.666667l0.042666-1.109334 0.085334-1.066666 0.128-1.066667 0.170666-1.066667 0.256-1.024 0.256-1.024 0.341334-0.981333 0.384-0.981333 0.426666-0.938667 0.469334-0.896 0.512-0.896 0.554666-0.853333 0.597334-0.853334 0.64-0.810666 0.682666-0.768 0.725334-0.725334 0.725333-0.725333 0.768-0.682667 0.810667-0.64 0.853333-0.597333 0.853333-0.554667 0.896-0.512 0.896-0.469333 0.938667-0.426667 0.981333-0.384 0.981334-0.341333 1.024-0.256 1.024-0.256 1.066666-0.170667 1.066667-0.128 1.066667-0.085333L192 853.333333h512.426667l1.066666 0.042667z" fill="#FFB28E" p-id="2137"></path></svg>