<?xml version="1.0" standalone="no"?><!DOCTYPE svg PUBLIC "-//W3C//DTD SVG 1.1//EN" "http://www.w3.org/Graphics/SVG/1.1/DTD/svg11.dtd"><svg t="1696840102936" class="icon" viewBox="0 0 1024 1024" version="1.1" xmlns="http://www.w3.org/2000/svg" p-id="2553" xmlns:xlink="http://www.w3.org/1999/xlink" width="200" height="200"><path d="M816.7 357.3h-0.3C812.9 192 677.9 59.1 511.9 59.1S210.8 192 207.3 357.3h-0.4c-86.9 0-158 71.1-158 158.1S120 673.5 207 673.5h609.8c87 0 158.1-71.1 158.1-158.1-0.1-87-71.2-158.1-158.2-158.1z" fill="#FFFFFF" p-id="2554"></path><path d="M816.7 702.6H207c-49.8 0-96.8-19.5-132.2-54.9-35.5-35.5-55-82.5-55-132.3s19.5-96.8 54.9-132.3c28.9-28.9 65.5-47.3 105.1-53 7.8-77.5 42.1-149.5 98.4-204.7C341 63.9 424 30 511.9 30s170.9 33.9 233.6 95.4c56.3 55.2 90.6 127 98.4 204.7 39.5 5.7 76.1 24.1 105 53 35.4 35.4 54.9 82.4 54.9 132.2s-19.5 96.8-54.9 132.3c-35.4 35.4-82.3 55-132.2 55zM207 386.4c-71.1 0-129 57.8-129 129 0 71 57.8 129 129 129h609.8c71.1 0 129-57.8 129-129s-57.8-129-129-129H788l-0.6-28.5C784.2 209.2 660.7 88.2 511.9 88.2s-272.3 121-275.4 269.6l-0.6 28.5H207zM955 780H86c-11 0-20-9-20-20v-2c0-11 9-20 20-20h869c11 0 20 9 20 20v2c0 11-9 20-20 20zM955 994H86c-11 0-20-9-20-20v-2c0-11 9-20 20-20h869c11 0 20 9 20 20v2c0 11-9 20-20 20z" fill="#1677B3" p-id="2555"></path><path d="M603.3 932.3c-31.6 0-55.9-13.7-86.8-58.2-22.5 36.2-50.2 59-90.6 59-49.5 0-78.8-32.4-78.8-68.5 0-42.2 31.2-69.6 79.2-69.6 32.7 0 60.1 16.4 89.4 57.9 30.4-46.8 52.1-62 87.5-62 46.4 0 79.9 29.7 79.9 73.1 0.1 37.5-33.4 68.3-79.8 68.3z m-177-125.6c-40.7 0-67.7 20.9-67.7 59.4 0 28.2 24.4 55.6 67.7 55.6 33.9 0 55.9-13.7 83-58.2-29.7-42.3-54.1-56.8-83-56.8z m177.4-4.5c-34.3 0-51 11-80.7 60.9 28.9 40.7 49.1 57.9 80.3 57.9 40.3 0 68.9-27 68.9-54.4 0-40.1-26.3-64.4-68.5-64.4z" fill="#636363" p-id="2556"></path></svg>