<?xml version="1.0" standalone="no"?><!DOCTYPE svg PUBLIC "-//W3C//DTD SVG 1.1//EN" "http://www.w3.org/Graphics/SVG/1.1/DTD/svg11.dtd"><svg t="1696843324713" class="icon" viewBox="0 0 1024 1024" version="1.1" xmlns="http://www.w3.org/2000/svg" p-id="3902" xmlns:xlink="http://www.w3.org/1999/xlink" width="200" height="200"><path d="M419.8 379.42l-1.15 1.98c1.49-0.52 2.94-1.18 4.36-1.98h-3.21zM484 450.51h14.75l-18.03-31.23-11.34 19.64A21.43 21.43 0 0 1 484 450.51zM467.09 442.9l-4.39 7.61h16.34c-2.64-4.05-6.95-6.92-11.95-7.61z" fill="#FFFFFF" p-id="3903"></path><path d="M874.95 264.41c-22.39-35.39-57.06-59.23-97.5-67.89-83.78-18.06-166.12 34.67-184.17 118.45C574.5 398.03 627.94 481.08 711 499.14c10.83 2.17 21.67 3.61 32.5 3.61 70.78 0 135.06-49.83 152.39-122.06 8.67-39.72 1.45-81.62-20.94-116.28z m-8.66 109.78c-15.17 67.89-82.34 111.22-150.23 96.78-67.89-14.44-111.22-82.33-96.06-150.22 13-59.22 65.73-99.67 123.5-99.67 9.39 0 18.06 0.72 26 2.89 33.22 7.22 61.39 26.72 79.45 54.89 18.78 28.16 24.56 62.11 17.34 95.33z" fill="#FFCC00" p-id="3904"></path><path d="M825.12 372.75h-1.45c-3.61-0.72-6.5-4.33-5.78-8.67 4.33-20.22 0.72-40.45-10.11-57.78s-28.17-28.89-47.67-33.23c-5.06-1.44-10.83-1.44-16.61-1.44-3.61 0-7.22-2.89-7.22-7.22 0-3.61 2.89-7.22 7.22-7.22 6.5 0 13 0.72 19.5 2.16 23.83 5.06 44.06 19.5 57.05 39.72 13 20.23 17.33 44.78 12.28 68.61-0.71 2.18-3.6 5.07-7.21 5.07zM789.73 150.29h-2.89c-7.94-1.44-12.28-9.39-10.83-16.61l13-58.5c1.44-7.94 9.39-12.28 16.61-10.84 7.94 1.45 12.28 9.39 10.83 16.61l-13 58.5c-1.44 6.51-7.22 10.84-13.72 10.84zM685 632.03h-2.89c-7.94-1.45-12.28-9.39-10.83-16.61l13-58.5c1.45-7.94 9.39-12.28 16.61-10.83 7.95 1.44 12.28 9.39 10.83 16.61l-13 58.5c-1.44 6.5-7.22 10.83-13.72 10.83zM532.61 315.69h-2.89l-58.5-13c-7.94-1.45-12.28-9.39-10.83-16.61 1.44-7.94 9.39-12.28 16.61-10.83l58.5 13c7.94 1.45 12.28 9.39 10.84 16.61-1.45 6.5-7.23 10.83-13.73 10.83zM511.66 511.41c-4.33 0-9.39-2.16-12.28-6.5-4.33-6.5-2.17-15.17 4.33-19.5l50.56-32.5c6.5-4.33 15.16-2.16 19.5 4.33 4.34 6.5 2.17 15.17-4.33 19.5l-50.55 32.5c-2.17 1.46-5.06 2.17-7.23 2.17zM627.22 179.91c-4.33 0-9.39-2.17-12.28-6.5l-32.5-50.56c-4.33-6.5-2.17-15.16 4.33-19.5 6.5-4.33 15.16-2.17 19.5 4.33l32.5 50.56c4.33 6.5 2.17 15.16-4.33 19.5-2.16 1.44-5.05 2.17-7.22 2.17z" fill="#FFCC00" p-id="3905"></path><path d="M464.72 691.97H138.99c-7.94 0-14.45-6.5-14.45-14.44 0-7.95 6.5-14.45 14.45-14.45h325.73c17.33 0 31.78-14.45 31.78-31.78 0-17.33-14.45-31.78-31.78-31.78-17.34 0-31.78 14.44-31.78 31.78 0 7.94-6.5 14.44-14.45 14.44-7.94 0-14.44-6.5-14.44-14.44 0-33.23 26.72-59.95 59.95-59.95 33.22 0 59.95 26.72 59.95 59.95 0.71 33.23-26.73 60.67-59.23 60.67zM464.72 959.93c-33.22 0-59.95-26.72-59.95-59.95 0-7.94 6.5-14.44 14.45-14.44 7.94 0 14.45 6.5 14.45 14.44 0 17.33 14.44 31.78 31.77 31.78 17.34 0 31.78-14.45 31.78-31.78 0-17.33-14.44-31.78-31.78-31.78H138.99c-7.94 0-14.45-6.5-14.45-14.44 0-7.95 6.5-14.45 14.45-14.45h325.73c33.22 0 59.94 26.72 59.94 59.94 0 33.23-27.44 60.68-59.94 60.68z" fill="#1088FF" p-id="3906"></path><path d="M620 868.2c-33.22 0-59.94-26.72-59.94-59.94 0-7.95 6.5-14.44 14.44-14.44 7.95 0 14.45 6.5 14.45 14.44 0 17.33 14.44 31.78 31.78 31.78 17.33 0 31.78-14.45 31.78-31.78 0-17.34-14.45-31.78-31.78-31.78H138.99c-7.94 0-14.45-6.5-14.45-14.44 0-7.94 6.5-14.45 14.45-14.45h481.74c33.22 0 59.95 26.72 59.95 59.95-0.01 33.22-27.46 60.66-60.68 60.66z" fill="#1088FF" p-id="3907"></path></svg>