<?xml version="1.0" standalone="no"?><!DOCTYPE svg PUBLIC "-//W3C//DTD SVG 1.1//EN" "http://www.w3.org/Graphics/SVG/1.1/DTD/svg11.dtd"><svg t="1696843447801" class="icon" viewBox="0 0 1024 1024" version="1.1" xmlns="http://www.w3.org/2000/svg" p-id="13056" xmlns:xlink="http://www.w3.org/1999/xlink" width="200" height="200"><path d="M896.597333 781.653333a101.290667 101.290667 0 0 1-202.496 0C694.101333 725.333333 795.306667 512 795.306667 512s101.290667 213.333333 101.290666 269.653333zM382.805333 907.52a11.093333 11.093333 0 0 1-5.205333-1.194667 12.117333 12.117333 0 0 1-5.717333-16.128L740.693333 123.306667a12.117333 12.117333 0 0 1 21.76 10.496l-368.725333 766.890666a12.117333 12.117333 0 0 1-10.922667 6.826667zM267.434667 463.701333a6.058667 6.058667 0 0 1-6.058667-6.058666V177.493333a6.058667 6.058667 0 0 1 12.117333 0v280.149334a6.058667 6.058667 0 0 1-6.058666 6.058666z" fill="#3ECDFF" p-id="13057"></path><path d="M303.530667 463.701333a6.058667 6.058667 0 0 1-4.437334-1.962666l-36.096-38.314667a6.058667 6.058667 0 0 1 0-8.533333 5.973333 5.973333 0 0 1 8.533334 0l36.181333 38.314666a6.144 6.144 0 0 1 0 8.533334 6.229333 6.229333 0 0 1-4.181333 1.962666z" fill="#3ECDFF" p-id="13058"></path><path d="M231.253333 463.36a5.973333 5.973333 0 0 1-4.352-10.154667l36.096-38.4a6.058667 6.058667 0 1 1 8.533334 8.533334l-36.096 38.314666a5.973333 5.973333 0 0 1-4.181334 1.706667zM267.434667 221.866667a6.4 6.4 0 0 1-4.181334-1.621334 6.144 6.144 0 0 1 0-8.533333l36.096-38.314667a6.229333 6.229333 0 0 1 8.533334 0 6.144 6.144 0 0 1 0 8.533334l-36.181334 38.4a6.144 6.144 0 0 1-4.266666 1.536z" fill="#3ECDFF" p-id="13059"></path><path d="M267.434667 221.866667a5.973333 5.973333 0 0 1-4.437334-1.877334l-36.096-38.314666a6.058667 6.058667 0 1 1 8.533334-8.533334l36.096 38.314667a5.973333 5.973333 0 0 1 0 8.533333 5.802667 5.802667 0 0 1-4.096 1.877334zM366.421333 422.656a5.973333 5.973333 0 0 1-4.266666-1.792L164.096 222.805333a6.058667 6.058667 0 1 1 8.533333-8.533333l198.144 198.058667a6.144 6.144 0 0 1 0 8.533333 6.058667 6.058667 0 0 1-4.352 1.792z" fill="#3ECDFF" p-id="13060"></path><path d="M392.021333 397.056l-52.650666-1.536a6.058667 6.058667 0 0 1 0-12.117333l52.650666 1.621333a6.058667 6.058667 0 0 1 0 12.032z" fill="#3ECDFF" p-id="13061"></path><path d="M340.736 448a6.058667 6.058667 0 0 1-6.058667-5.888L332.8 389.461333a6.058667 6.058667 0 0 1 5.888-6.229333 6.058667 6.058667 0 0 1 6.058667 5.888l1.536 52.650667a5.973333 5.973333 0 0 1-5.802667 6.229333zM195.498667 251.648a6.058667 6.058667 0 0 1-6.058667-5.888l-1.706667-52.650667a5.973333 5.973333 0 0 1 5.802667-6.229333 6.058667 6.058667 0 0 1 6.058667 5.888l1.536 52.650667a5.973333 5.973333 0 0 1-5.802667 6.229333z" fill="#3ECDFF" p-id="13062"></path><path d="M195.669333 251.904l-52.650666-1.536a6.058667 6.058667 0 0 1 0-12.117333l53.248 1.536a6.058667 6.058667 0 0 1 0 12.117333zM407.552 323.669333H127.402667a6.058667 6.058667 0 0 1 0-12.117333h280.149333a6.058667 6.058667 0 0 1 0 12.117333z" fill="#3ECDFF" p-id="13063"></path><path d="M369.237333 323.669333a5.888 5.888 0 0 1-4.352-1.962666 6.058667 6.058667 0 0 1 0-8.533334l38.4-36.096a5.973333 5.973333 0 0 1 8.533334 0 6.058667 6.058667 0 0 1 0 8.533334l-38.314667 36.096a6.058667 6.058667 0 0 1-4.266667 1.962666z" fill="#3ECDFF" p-id="13064"></path><path d="M407.296 359.765333a5.973333 5.973333 0 0 1-4.181333-1.621333l-38.314667-36.181333a6.058667 6.058667 0 0 1 8.533333-8.533334l38.4 36.181334a6.058667 6.058667 0 0 1-4.181333 10.410666zM165.802667 323.669333a6.058667 6.058667 0 0 1-4.181334-1.706666l-38.314666-36.096a6.058667 6.058667 0 1 1 8.533333-8.533334l38.314667 36.096a5.973333 5.973333 0 0 1 0 8.533334 5.888 5.888 0 0 1-4.352 1.706666z" fill="#3ECDFF" p-id="13065"></path><path d="M128 359.765333a6.314667 6.314667 0 0 1-4.437333-1.877333 6.144 6.144 0 0 1 0-8.533333L162.133333 313.173333a6.058667 6.058667 0 1 1 8.533334 8.533334L131.925333 358.4a6.144 6.144 0 0 1-3.925333 1.365333zM168.448 422.656a6.058667 6.058667 0 0 1-4.266667-10.325333l198.058667-198.058667a6.058667 6.058667 0 0 1 8.533333 8.533333L172.714667 420.864a5.973333 5.973333 0 0 1-4.266667 1.792z" fill="#3ECDFF" p-id="13066"></path><path d="M339.456 251.733333a5.973333 5.973333 0 0 1-5.888-6.144l1.536-52.650666a6.058667 6.058667 0 0 1 6.229333-5.888 6.058667 6.058667 0 0 1 5.888 6.229333l-1.536 52.650667a6.144 6.144 0 0 1-6.229333 5.802666z" fill="#3ECDFF" p-id="13067"></path><path d="M339.2 251.904a6.058667 6.058667 0 0 1 0-12.117333l52.650667-1.536a5.802667 5.802667 0 0 1 6.229333 5.888 5.973333 5.973333 0 0 1-5.802667 6.229333l-52.650666 1.536zM142.933333 397.141333a6.058667 6.058667 0 0 1 0-12.117333l52.650667-1.536a6.058667 6.058667 0 0 1 0 12.032l-52.650667 1.621333z" fill="#3ECDFF" p-id="13068"></path><path d="M194.218667 448a6.058667 6.058667 0 0 1-5.888-6.229333l1.621333-52.650667a5.973333 5.973333 0 0 1 6.144-5.888 6.058667 6.058667 0 0 1 5.888 6.229333l-1.536 52.650667a6.058667 6.058667 0 0 1-6.229333 5.888z" fill="#3ECDFF" p-id="13069"></path></svg>