<?xml version="1.0" standalone="no"?><!DOCTYPE svg PUBLIC "-//W3C//DTD SVG 1.1//EN" "http://www.w3.org/Graphics/SVG/1.1/DTD/svg11.dtd"><svg t="1696843463673" class="icon" viewBox="0 0 1024 1024" version="1.1" xmlns="http://www.w3.org/2000/svg" p-id="14181" xmlns:xlink="http://www.w3.org/1999/xlink" width="200" height="200"><path d="M285.44 314.453333m-172.458667 0a172.458667 172.458667 0 1 0 344.917334 0 172.458667 172.458667 0 1 0-344.917334 0Z" fill="#FFBF44" p-id="14182"></path><path d="M544.938667 338.602667h-47.36a24.234667 24.234667 0 1 1 0-48.384h47.36a24.234667 24.234667 0 0 1 0 48.384zM469.333333 232.533333A24.149333 24.149333 0 0 1 457.045333 187.733333l41.045334-23.637333a24.149333 24.149333 0 1 1 24.149333 41.557333l-41.045333 23.637334a23.637333 23.637333 0 0 1-11.861334 3.242666zM391.424 154.965333a24.746667 24.746667 0 0 1-12.032-3.242666 24.234667 24.234667 0 0 1-8.533333-33.109334l23.381333-41.045333a24.234667 24.234667 0 0 1 41.898667 24.234667l-23.722667 41.045333a24.149333 24.149333 0 0 1-20.992 12.117333zM285.44 126.549333A24.234667 24.234667 0 0 1 261.205333 102.4V54.954667a24.234667 24.234667 0 1 1 48.384 0V102.4a24.234667 24.234667 0 0 1-24.149333 24.149333zM179.2 154.965333a24.064 24.064 0 0 1-20.906667-12.117333l-23.722666-41.045333A24.149333 24.149333 0 1 1 176.64 77.653333l23.722667 40.96a24.234667 24.234667 0 0 1-8.533334 33.109334 24.832 24.832 0 0 1-12.629333 3.242666zM101.717333 232.533333a23.637333 23.637333 0 0 1-12.032-3.242666L48.64 205.653333a24.149333 24.149333 0 1 1 24.149333-41.898666L113.834667 187.733333a24.149333 24.149333 0 0 1-12.117334 45.141334zM73.301333 338.602667H25.6A24.234667 24.234667 0 0 1 25.6 290.133333h47.701333a24.234667 24.234667 0 1 1 0 48.384zM60.757333 468.309333a24.149333 24.149333 0 0 1-12.117333-45.141333l41.045333-23.637333a24.149333 24.149333 0 0 1 24.149334 41.898666L72.789333 465.066667a23.637333 23.637333 0 0 1-12.032 3.242666zM155.648 563.2a23.808 23.808 0 0 1-12.032-3.242667 24.149333 24.149333 0 0 1-8.533333-33.024L158.464 486.4a24.234667 24.234667 0 0 1 41.898667 24.234667L176.64 551.253333a24.064 24.064 0 0 1-20.992 11.946667zM285.44 598.101333a24.234667 24.234667 0 0 1-24.234667-24.234666V526.506667a24.234667 24.234667 0 0 1 48.384 0v47.36a24.234667 24.234667 0 0 1-24.149333 24.234666zM415.232 563.2a24.064 24.064 0 0 1-20.992-11.946667l-23.722667-41.045333A24.234667 24.234667 0 0 1 412.416 486.4l23.722667 41.045333a24.149333 24.149333 0 0 1-8.533334 33.024 23.808 23.808 0 0 1-12.373333 2.730667zM510.122667 468.309333a23.637333 23.637333 0 0 1-12.032-3.242666l-41.045334-23.637334a24.149333 24.149333 0 1 1 24.149334-41.898666l41.045333 23.637333a24.149333 24.149333 0 0 1-12.117333 45.141333z" fill="#FFBF44" p-id="14183"></path><path d="M813.994667 312.576a206.421333 206.421333 0 0 0-40.704 4.010667 267.52 267.52 0 0 0-520.021334 38.741333h-9.813333v1.536a186.794667 186.794667 0 0 0 0 370.517333v1.621334h570.538667a208.213333 208.213333 0 1 0 0-416.426667z" fill="#FFFFFF" p-id="14184"></path><path d="M429.397333 944.469333a48.810667 48.810667 0 1 1-97.536 0c0-26.88 48.725333-129.792 48.725334-129.792s48.810667 102.912 48.810666 129.792zM664.832 934.485333a4.181333 4.181333 0 0 1-4.181333-4.266666V805.034667a4.266667 4.266667 0 1 1 8.533333 0V930.133333a4.266667 4.266667 0 0 1-4.352 4.352z" fill="#3ECDFF" p-id="14185"></path><path d="M681.045333 934.485333a4.181333 4.181333 0 0 1-3.157333-1.365333l-16.128-17.066667a4.266667 4.266667 0 1 1 6.144-5.802666l16.213333 17.066666a4.181333 4.181333 0 0 1 0 5.973334 3.925333 3.925333 0 0 1-3.072 1.194666z" fill="#3ECDFF" p-id="14186"></path><path d="M648.533333 934.4a4.352 4.352 0 0 1-2.901333-1.194667 4.181333 4.181333 0 0 1 0-5.973333l16.128-17.066667a4.266667 4.266667 0 1 1 6.144 5.802667l-16.128 17.066667a4.437333 4.437333 0 0 1-3.242667 1.365333zM664.832 826.368a4.266667 4.266667 0 0 1-2.901333-1.109333 4.181333 4.181333 0 0 1 0-5.973334l16.128-17.066666a4.266667 4.266667 0 0 1 6.229333 5.802666l-16.213333 17.066667a4.181333 4.181333 0 0 1-3.242667 1.28z" fill="#3ECDFF" p-id="14187"></path><path d="M664.832 826.538667a4.096 4.096 0 0 1-3.072-1.365334l-16.128-17.066666a4.181333 4.181333 0 0 1 0-5.973334 4.352 4.352 0 0 1 5.973333 0l16.128 17.066667a4.266667 4.266667 0 0 1-3.072 7.168zM709.12 916.138667a4.437333 4.437333 0 0 1-2.986667-1.194667L617.557333 826.368a4.266667 4.266667 0 0 1 0-5.973333 4.096 4.096 0 0 1 5.973334 0l88.576 88.490666a4.266667 4.266667 0 0 1 0 6.058667 4.437333 4.437333 0 0 1-2.986667 1.194667z" fill="#3ECDFF" p-id="14188"></path><path d="M720.554667 904.533333l-23.552-0.682666a4.352 4.352 0 0 1-4.181334-4.352 4.266667 4.266667 0 0 1 4.437334-4.096l23.466666 0.682666a4.352 4.352 0 0 1 4.181334 4.352 4.266667 4.266667 0 0 1-4.352 4.096z" fill="#3ECDFF" p-id="14189"></path><path d="M697.6 927.488a4.096 4.096 0 0 1-4.181333-4.096l-0.768-23.552a4.352 4.352 0 0 1 4.181333-4.352 4.181333 4.181333 0 0 1 4.352 4.096l0.682667 23.552a4.266667 4.266667 0 0 1-4.096 4.352zM632.661333 839.68a4.266667 4.266667 0 0 1-4.181333-4.096l-0.682667-23.552a4.181333 4.181333 0 0 1 4.096-4.352 4.693333 4.693333 0 0 1 4.352 4.096l0.682667 23.552a4.181333 4.181333 0 0 1-4.096 4.352z" fill="#3ECDFF" p-id="14190"></path><path d="M632.746667 839.850667l-23.552-0.768a4.181333 4.181333 0 0 1-4.096-4.352 4.352 4.352 0 0 1 4.352-4.096l23.552 0.682666a4.266667 4.266667 0 0 1 4.096 4.352 4.352 4.352 0 0 1-4.352 4.181334zM727.552 871.936H602.282667a4.352 4.352 0 0 1-4.266667-4.266667 4.266667 4.266667 0 0 1 4.266667-4.266666h125.269333a4.181333 4.181333 0 0 1 4.181333 4.266666 4.266667 4.266667 0 0 1-4.181333 4.266667z" fill="#3ECDFF" p-id="14191"></path><path d="M710.4 871.936a4.266667 4.266667 0 0 1-3.072-1.365333 4.181333 4.181333 0 0 1 0-5.973334l17.066667-16.128a4.266667 4.266667 0 0 1 5.802666 6.144l-17.066666 16.128a4.352 4.352 0 0 1-2.730667 1.194667z" fill="#3ECDFF" p-id="14192"></path><path d="M727.381333 888.064a4.352 4.352 0 0 1-2.901333-1.194667l-17.066667-16.128a4.266667 4.266667 0 0 1 5.802667-6.144l17.066667 16.128a4.181333 4.181333 0 0 1 0 5.973334 4.437333 4.437333 0 0 1-2.901334 1.365333zM619.434667 871.936a4.181333 4.181333 0 0 1-2.901334-1.194667l-17.066666-16.128a4.266667 4.266667 0 1 1 5.802666-6.144l17.066667 16.128a4.181333 4.181333 0 0 1 0 5.973334 4.437333 4.437333 0 0 1-2.901333 1.365333z" fill="#3ECDFF" p-id="14193"></path><path d="M602.453333 888.064a4.437333 4.437333 0 0 1-3.157333-1.365333 4.266667 4.266667 0 0 1 0-5.973334l17.066667-16.128a4.266667 4.266667 0 1 1 5.802666 6.144l-17.066666 16.128a4.010667 4.010667 0 0 1-2.645334 1.194667zM620.629333 916.138667a4.266667 4.266667 0 0 1-2.986666-1.194667 4.096 4.096 0 0 1 0-5.973333l88.576-88.576a4.181333 4.181333 0 0 1 5.973333 5.973333l-88.576 88.576a4.437333 4.437333 0 0 1-2.986667 1.194667z" fill="#3ECDFF" p-id="14194"></path><path d="M697.088 839.765333a4.266667 4.266667 0 0 1-4.096-4.352l0.682667-23.552a4.181333 4.181333 0 0 1 4.352-4.096 4.266667 4.266667 0 0 1 4.181333 4.352l-0.768 23.552a4.266667 4.266667 0 0 1-4.352 4.096z" fill="#3ECDFF" p-id="14195"></path><path d="M697.002667 839.850667a4.266667 4.266667 0 0 1-4.266667-4.096 4.181333 4.181333 0 0 1 4.096-4.352l23.552-0.768a4.266667 4.266667 0 0 1 0 8.533333l-23.552 0.682667zM609.194667 904.533333a4.266667 4.266667 0 0 1 0-8.533333l23.552-0.682667a4.522667 4.522667 0 0 1 4.352 4.096 4.266667 4.266667 0 0 1-4.181334 4.352l-23.466666 0.768z" fill="#3ECDFF" p-id="14196"></path><path d="M632.149333 927.488a4.266667 4.266667 0 0 1-4.096-4.352l0.682667-23.552a4.266667 4.266667 0 0 1 8.533333 0l-0.768 23.552a4.096 4.096 0 0 1-4.352 4.352z" fill="#3ECDFF" p-id="14197"></path></svg>