<?xml version="1.0" standalone="no"?><!DOCTYPE svg PUBLIC "-//W3C//DTD SVG 1.1//EN" "http://www.w3.org/Graphics/SVG/1.1/DTD/svg11.dtd"><svg t="1696840298309" class="icon" viewBox="0 0 1024 1024" version="1.1" xmlns="http://www.w3.org/2000/svg" p-id="4391" xmlns:xlink="http://www.w3.org/1999/xlink" width="200" height="200"><path d="M816.9 684.6H207.2c-49.8 0-96.8-19.5-132.2-54.9-35.5-35.5-55-82.5-55-132.3 0-49.8 19.5-96.8 54.9-132.3 28.9-28.9 65.5-47.3 105.1-53 7.8-77.5 42.1-149.5 98.4-204.7C341.1 45.9 424.1 12 512 12s171 33.9 233.7 95.4c56.3 55.2 90.6 127 98.4 204.7 39.5 5.7 76.1 24.1 105 53 35.4 35.4 54.9 82.4 54.9 132.2s-19.5 96.8-54.9 132.3c-35.5 35.4-82.3 55-132.2 55zM207.2 368.4c-71.1 0-129 57.8-129 129 0 71 57.8 129 129 129H817c71.1 0 129-57.8 129-129 0-71.1-57.8-129-129-129h-28.8l-0.6-28.5C784.4 191.2 660.8 70.2 512 70.2s-272.3 121-275.4 269.6l-0.6 28.5h-28.8z" fill="#1677B3" p-id="4392"></path><path d="M596 801H157c-11 0-20-9-20-20s9-20 20-20h439c11 0 20 9 20 20s-9 20-20 20zM850 801H735c-11 0-20-9-20-20s9-20 20-20h115c11 0 20 9 20 20s-9 20-20 20zM272 914H157c-11 0-20-9-20-20s9-20 20-20h115c11 0 20 9 20 20s-9 20-20 20zM850 914H411c-11 0-20-9-20-20s9-20 20-20h439c11 0 20 9 20 20s-9 20-20 20z" fill="#1677B3" p-id="4393"></path></svg>