<?xml version="1.0" standalone="no"?><!DOCTYPE svg PUBLIC "-//W3C//DTD SVG 1.1//EN" "http://www.w3.org/Graphics/SVG/1.1/DTD/svg11.dtd"><svg t="1671095573234" class="icon" viewBox="0 0 1024 1024" version="1.1" xmlns="http://www.w3.org/2000/svg" p-id="2147" xmlns:xlink="http://www.w3.org/1999/xlink" width="200" height="200"><path d="M262.485333 575.829333l7.850667 0.341334a85.333333 85.333333 0 0 1 76.515556 71.964444l9.671111 62.976h107.235555a85.333333 85.333333 0 1 1 0 56.888889h-98.417778l6.314667 40.96 1.251556 5.006222a28.444444 28.444444 0 0 0 26.908444 19.057778h288.426667a113.777778 113.777778 0 1 1 4.209778 56.888889H399.815111l-7.850667-0.341333a85.333333 85.333333 0 0 1-76.515555-71.964445L307.768889 768H89.088a28.444444 28.444444 0 0 1-5.12-56.433778l5.12-0.455111h209.92l-8.419556-54.328889-1.251555-5.006222a28.444444 28.444444 0 0 0-26.851556-19.057778H85.333333l-5.12-0.455111a28.444444 28.444444 0 0 1 5.12-56.433778h177.152zM800.199111 796.444444a56.888889 56.888889 0 1 0 0 113.777778 56.888889 56.888889 0 0 0 0-113.777778z m-256-85.333333a28.444444 28.444444 0 1 0 0 56.888889 28.444444 28.444444 0 0 0 0-56.888889z m28.444445-341.333333A113.777778 113.777778 0 1 1 462.506667 512.056889L89.088 512a28.444444 28.444444 0 0 1-5.12-56.433778L89.088 455.111111H462.506667a113.777778 113.777778 0 0 1 110.193777-85.333333z m0 56.888889a56.888889 56.888889 0 1 0 0 113.777777 56.888889 56.888889 0 0 0 0-113.777777z m199.111111-369.777778a85.333333 85.333333 0 1 1-77.653334 120.718222H396.060444a28.444444 28.444444 0 0 0-26.168888 17.408l-1.536 4.664889-25.770667 112.071111A85.333333 85.333333 0 0 1 267.377778 377.514667l-7.907556 0.341333H85.333333a28.444444 28.444444 0 0 1-5.12-56.433778l5.12-0.455111h174.08a28.444444 28.444444 0 0 0 26.225778-17.408l1.536-4.664889 25.713778-112.071111a85.333333 85.333333 0 0 1 75.320889-65.820444l7.850666-0.341334h293.091556A85.333333 85.333333 0 0 1 771.754667 56.888889z m0 56.888889a28.444444 28.444444 0 1 0 0 56.888889 28.444444 28.444444 0 0 0 0-56.888889z" fill="#515151" p-id="2148"></path></svg>