<?xml version="1.0" standalone="no"?><!DOCTYPE svg PUBLIC "-//W3C//DTD SVG 1.1//EN" "http://www.w3.org/Graphics/SVG/1.1/DTD/svg11.dtd"><svg t="1671095379864" class="icon" viewBox="0 0 1024 1024" version="1.1" xmlns="http://www.w3.org/2000/svg" p-id="1932" xmlns:xlink="http://www.w3.org/1999/xlink" width="200" height="200"><path d="M501.8 687.1c16.5 0 30-13.5 30-30V489.9c0-16.5-13.5-30-30-30s-30 13.5-30 30v167.3c0 16.4 13.4 29.9 30 29.9zM651.1 687.1c16.5 0 30-13.5 30-30V390.3c0-16.5-13.5-30-30-30s-30 13.5-30 30v266.8c0.1 16.5 13.5 30 30 30zM713.5 739H316.9c-16.5 0-30 13.5-30 30s13.5 30 30 30h396.7c16.5 0 30-13.5 30-30-0.1-16.5-13.6-30-30.1-30zM352.4 687.1c16.5 0 30-13.5 30-30v-98.7c0-16.5-13.5-30-30-30s-30 13.5-30 30v98.7c0 16.5 13.5 30 30 30z" p-id="1933" fill="#515151"></path><path d="M823.2 96.2H363.4l-64.5 64.5-102.5 102.5-64.5 64.5V851c0 41.6 33.8 75.4 75.4 75.4h615.9c41.6 0 75.4-33.8 75.4-75.4V171.7c0-41.6-33.8-75.5-75.4-75.5z m-463.1 94.5v110.8c0 3.9-3.1 7.1-7.1 7.1H242.2c0 0.1 117.9-117.9 117.9-117.9z m474 660.3c0 6-4.9 10.9-10.9 10.9h-616c-6 0-10.9-4.9-10.9-10.9V373.2H353c39.5 0 71.6-32.1 71.6-71.6V160.8h398.5c6 0 10.9 4.9 10.9 10.9V851z" p-id="1934" fill="#515151"></path></svg>