<svg width="64" height="48" viewBox="0 0 64 48" fill="none" class="pui-components-settings-components-theme-index-theme-primary-wrapper pui-components-settings-components-theme-index-theme-primary-wrapper-selected"><rect width="64" height="48" rx="4" fill="white"></rect><path d="M0 4C0 1.79086 1.79086 0 4 0H23V48H4C1.79086 48 0 46.2091 0 44V4Z" fill="#D6D6D8"></path><path d="M0 4C0 1.79086 1.79086 0 4 0H5V48H4C1.79086 48 0 46.2091 0 44V4Z" fill="#919294"></path><rect x="30" y="6" width="26" height="6" rx="0.1" fill="#E6E7E9"></rect><rect x="30" y="16" width="16" height="6" rx="0.1" fill="#E6E7E9"></rect><rect x="30" y="26" width="22" height="6" rx="0.1" fill="#E6E7E9"></rect><rect x="8" y="6" width="13" height="1" rx="0.1" fill="#919294"></rect><rect x="8" y="11" width="6" height="1" rx="0.1" fill="#919294"></rect><rect x="8" y="16" width="10" height="1" rx="0.1" fill="#919294"></rect></svg>