<?xml version="1.0" standalone="no"?><!DOCTYPE svg PUBLIC "-//W3C//DTD SVG 1.1//EN" "http://www.w3.org/Graphics/SVG/1.1/DTD/svg11.dtd"><svg t="1680767519968" class="icon" viewBox="0 0 1027 1024" version="1.1" xmlns="http://www.w3.org/2000/svg" p-id="6595" xmlns:xlink="http://www.w3.org/1999/xlink" width="200.5859375" height="200"><path d="M228.012917 934.867678H117.115726c-20.728447 0-37.311205-16.582758-37.311205-37.311205V183.461473c1.036422-60.112496 8.291379-102.605813 94.314434-102.605812h732.750602c18.655602 0 34.201938 13.473491 36.274782 33.165515v58.039651c0 10.364224 4.145689 20.728447 11.400646 27.983404 7.254956 7.254956 16.582758 11.400646 26.946981 11.400646 4.145689 0 8.291379-1.036422 12.437069-2.072845 15.546335-5.182112 25.910559-21.764869 25.910558-39.384049V104.693375c0-50.784695-52.85754-104.678657-101.56939-104.678658H101.56939C52.85754-1.021705 0 52.872257 0 104.693375v798.04521c0 63.221763 49.748273 114.006459 111.933614 114.006459h114.006459c21.764869 0 40.420472-16.582758 42.493316-38.347627 1.036422-11.400646-3.109267-22.801292-11.400646-31.092671-8.291379-7.254956-18.655602-12.437068-29.019826-12.437068z" p-id="6596" fill="#515151"></path><path d="M1003.256836 560.719209l-3.109267-2.072845-521.320443-238.37714c-11.400646-8.291379-26.946981-8.291379-39.384049-1.036423-12.437068 7.254956-19.692025 20.728447-18.655602 35.23836l16.582757 588.687896v1.036422c2.072845 15.546335 12.437068 27.983403 27.983404 32.129093 13.473491 3.109267 25.910559 1.036422 38.347627-6.218534L658.128193 850.917467l101.56939 153.390508c6.218534 11.400646 17.61918 17.61918 30.056248 18.655603l1.036423 1.036422 6.218534-1.036422c4.145689 0 9.327801-2.072845 13.47349-4.14569L963.872786 896.520051l1.036423-1.036423c16.582758-16.582758 18.655602-39.384049 5.182112-54.930384L837.42926 715.146139l153.390508-87.059477 1.036422-1.036422c2.072845-1.036422 4.145689-3.109267 6.218534-4.14569 8.291379-5.182112 16.582758-10.364224 21.764869-21.764869l1.036423-3.109267c4.145689-21.764869-10.364224-32.129093-17.61918-37.311205zM664.346727 761.785145H658.128193c-10.364224 1.036422-18.655602 6.218534-24.874137 14.509913L506.81053 885.119405l-21.76487-489.19135 428.042431 196.920247L787.680987 666.434289l-1.036423 1.036422c-10.364224 7.254956-14.509913 11.400646-19.692024 20.728447-6.218534 12.437068-4.145689 27.983403 6.218534 38.347627l125.407104 137.844173-95.350856 80.840943L694.402975 780.440748c-6.218534-11.400646-17.61918-18.655602-30.056248-18.655603z" p-id="6597" fill="#515151"></path></svg>