<svg t="1696666174200" class="icon" viewBox="0 0 1024 1024" version="1.1" xmlns="http://www.w3.org/2000/svg" p-id="7496" width="200" height="200"><path d="M832 928H192a32 32 0 0 1-32-32V128a32 32 0 0 1 32-32h512a33.28 33.28 0 0 1 23.68 10.24l128 138.88a32.64 32.64 0 0 1 8.32 21.76V384a32 32 0 0 1-64 0V279.04L689.92 160H224v704h576v-256a32 32 0 0 1 64 0V896a32 32 0 0 1-32 32z" fill="#4D4D4D" p-id="7497"></path><path d="M576 352H320a32 32 0 0 1 0-64h256a32 32 0 0 1 0 64zM576 544H320a32 32 0 0 1 0-64h256a32 32 0 0 1 0 64zM448 800a31.36 31.36 0 0 1-26.24-13.44 32 32 0 0 1 7.68-44.8l448-320a32 32 0 0 1 37.12 52.48l-448 320a33.28 33.28 0 0 1-18.56 5.76z" fill="#4D4D4D" p-id="7498"></path></svg>